<svg xmlns="http://www.w3.org/2000/svg" xmlns:xlink="http://www.w3.org/1999/xlink" id="Layer_1" x="0px" y="0px" viewBox="0 0 141.73 141.73" style="enable-background:new 0 0 141.73 141.73;" xml:space="preserve">
<style type="text/css">
	.Half_x0020_Highlight_x0020_Blue{fill:url(#SVGID_1_);stroke:#FFFFFF;stroke-width:0.25;stroke-miterlimit:1;}
	.st0{fill:none;stroke:#224192;stroke-width:2.8404;stroke-miterlimit:10;}
	.st1{fill:#224192;}
	.st2{fill-rule:evenodd;clip-rule:evenodd;fill:#224192;}
	.st3{fill:none;stroke:#224192;stroke-width:2.1049;stroke-miterlimit:10;}
	.st4{clip-path:url(#SVGID_5_);fill:none;stroke:#224192;stroke-width:0.3841;stroke-miterlimit:10;}
	.st5{fill:#214391;}
	.st6{fill:none;stroke:#214391;stroke-width:4.3237;stroke-linecap:round;stroke-miterlimit:10;}
	.st7{fill:none;stroke:#214391;stroke-width:6.1676;stroke-linecap:round;stroke-miterlimit:10;}
	.st8{fill:none;stroke:#214391;stroke-width:1.9566;stroke-linecap:round;stroke-miterlimit:10;}
	.st9{fill:#214490;}
	.st10{fill:#FFFFFF;}
	.st11{opacity:0.29;fill:#214391;}
	.st12{fill:none;stroke:#214391;stroke-width:2.5081;stroke-linecap:round;stroke-miterlimit:10;}
	.st13{fill:none;stroke:#214391;stroke-width:2.0814;stroke-linecap:round;stroke-miterlimit:10;}
	.st14{fill:none;stroke:#214391;stroke-width:1.3934;stroke-linecap:round;stroke-miterlimit:10;}
	.st15{fill:none;stroke:#214391;stroke-width:1.087;stroke-linecap:round;stroke-miterlimit:10;}
	.st16{fill:none;stroke:#214391;stroke-width:1.4073;stroke-linecap:round;stroke-miterlimit:10;}
	.st17{fill:none;stroke:#214391;stroke-width:1.8953;stroke-linecap:round;stroke-miterlimit:10;}
	.st18{fill:none;stroke:#214391;stroke-width:1.7348;stroke-linecap:round;stroke-miterlimit:10;}
	.st19{fill:none;stroke:#214391;stroke-width:1.7153;stroke-linecap:round;stroke-miterlimit:10;}
	.st20{fill:none;stroke:#224192;stroke-width:1.817;stroke-miterlimit:10;}
	.st21{opacity:0.7;fill:#214391;}
	.st22{opacity:0.8;}
	.st23{opacity:0.8;fill:#214391;}
	.st24{fill:none;stroke:#214391;stroke-width:1.7295;stroke-linecap:round;stroke-miterlimit:10;}
	.st25{fill:#FFFFFF;stroke:#224192;stroke-width:0.7604;stroke-miterlimit:10;}
	.st26{clip-path:url(#SVGID_7_);fill:#214391;}
	.st27{fill:none;stroke:#214391;stroke-width:3;stroke-miterlimit:10;}
	.st28{fill:none;stroke:#214391;stroke-width:3;stroke-linecap:round;stroke-miterlimit:10;}
	.st29{fill:none;stroke:#214391;stroke-width:2.9903;stroke-miterlimit:10;}
	.st30{fill:none;stroke:#214391;stroke-width:2.9903;stroke-linecap:round;stroke-miterlimit:10;}
	.st31{fill:none;stroke:#214391;stroke-width:2.9626;stroke-linecap:round;stroke-miterlimit:10;}
	.st32{fill:none;stroke:#214391;stroke-width:2.0277;stroke-miterlimit:10;}
	.st33{fill:none;stroke:#214391;stroke-width:2;stroke-miterlimit:10;}
	.st34{fill:none;stroke:#214391;stroke-width:1.9297;stroke-miterlimit:10;}
	.st35{fill:none;stroke:#214391;stroke-width:1.9699;stroke-miterlimit:10;}
	.st36{fill:none;stroke:#214391;stroke-width:2.028;stroke-linejoin:round;stroke-miterlimit:10;}
	.st37{fill:none;stroke:#214391;stroke-width:2.028;stroke-linecap:round;stroke-linejoin:round;stroke-miterlimit:10;}
	.st38{fill:none;stroke:#224192;stroke-width:5.3246;stroke-miterlimit:10;}
	.st39{fill:none;stroke:#224192;stroke-width:8;stroke-miterlimit:10;}
	.st40{fill:none;stroke:#234087;stroke-width:6.9549;stroke-miterlimit:10;}
	.st41{fill:none;stroke:#234087;stroke-width:5.1671;stroke-miterlimit:10;}
	.st42{fill:none;stroke:#234087;stroke-width:5.1671;stroke-linecap:round;stroke-miterlimit:10;}
	.st43{fill:none;stroke:#234087;stroke-width:3.7203;stroke-linecap:round;stroke-miterlimit:10;}
	.st44{fill:none;stroke:#234087;stroke-width:5.8912;stroke-miterlimit:10;}
	.st45{fill:none;stroke:#234087;stroke-width:6.7813;stroke-miterlimit:10;}
	.st46{fill:none;stroke:#234087;stroke-width:3.245;stroke-miterlimit:10;}
	.st47{fill:none;stroke:#234087;stroke-width:2.7814;stroke-miterlimit:10;}
</style>
<linearGradient id="SVGID_1_" gradientUnits="userSpaceOnUse" x1="-1065.3914" y1="-217.5652" x2="-1065.3914" y2="-218.5652">
	<stop offset="0" style="stop-color:#2E3F99"></stop>
	<stop offset="0.618" style="stop-color:#2A3182"></stop>
	<stop offset="0.6292" style="stop-color:#2A3491"></stop>
	<stop offset="0.9831" style="stop-color:#00629F"></stop>
</linearGradient>
<g id="Recycle">
</g>
<g id="Check_-_Grey">
</g>
<g id="Arrow_26">
</g>
<g id="Arrow_26_1_">
</g>
<g>
	
		<ellipse transform="matrix(0.0256 -0.9997 0.9997 0.0256 -1.2753 139.9264)" class="st45" cx="71.14" cy="70.62" rx="64.09" ry="65.43"></ellipse>
	<path class="st46" d="M95.76,39.4l8.62-8.72c0,0,3.08-8.59-6.02-5.96l-9.72,9.19l-3.71-4.23c-0.6-0.68-1.64-0.74-2.31-0.13   l-8.35,7.62l16.48,17.3l7.72-7.49c0.7-0.67,0.72-1.78,0.05-2.48l-3.88-4.08L95.76,39.4z"></path>
	<polyline class="st46" points="69.01,64.44 81.5,52.49 75.48,46.53 63.05,58.23  "></polyline>
	<path class="st46" d="M92.59,52.68c0,0-1.31,2.21-1.77,4.24c-0.46,2.03-2.37,2.21-2.37,2.21l-5.85-5.5"></path>
	<path class="st46" d="M74.67,45.73l-4.87-5.45c0,0-0.76-2.24,1.27-3.42c2.03-1.17,5.16-1.46,5.16-1.46"></path>
	<line class="st45" x1="26.02" y1="24.08" x2="114.96" y2="118.19"></line>
	<path class="st46" d="M67.03,67.48c0,0-14.6,13.42-19.13,15.3c-2.64,1.1-4.58-0.49-4.31-2.11c0.21-1.27,0.77-2.45,1.54-3.47   c2.68-3.54,9.83-12.68,15.63-16.33"></path>
	<path class="st46" d="M43.86,87.7c0,0,7.04,8.62,8.26,17.63c1.22,9.01-6.61,11.38-6.61,11.38s-6.71,2.31-10.76-7.23   C34.74,109.48,35.67,99.04,43.86,87.7z"></path>
	<path class="st47" d="M38.58,105.98c0,0,1.81,2.38,2.1,2.87c0.29,0.49,1,0.95,1.7,1.75c0.71,0.8,1.6,1.57,1.69,2.57   c0.1,1-2.28,1.56-2.28,1.56s-2.52,0.68-5.42-5.45l0.53-0.44l0.99-0.67l4.73,5.54"></path>
	<line class="st46" x1="94.65" y1="40.42" x2="88.65" y2="33.91"></line>
</g>
</svg>