<svg xmlns="http://www.w3.org/2000/svg" xmlns:xlink="http://www.w3.org/1999/xlink" id="Layer_1" x="0px" y="0px" viewBox="0 0 141.73 141.73" style="enable-background:new 0 0 141.73 141.73;" xml:space="preserve">
<style type="text/css">
	.Half_x0020_Highlight_x0020_Blue{fill:url(#SVGID_1_);stroke:#FFFFFF;stroke-width:0.25;stroke-miterlimit:1;}
	.st0{fill:none;stroke:#224192;stroke-width:2.8404;stroke-miterlimit:10;}
	.st1{fill:#224192;}
	.st2{fill-rule:evenodd;clip-rule:evenodd;fill:#224192;}
	.st3{fill:none;stroke:#224192;stroke-width:2.1049;stroke-miterlimit:10;}
	.st4{clip-path:url(#SVGID_5_);fill:none;stroke:#224192;stroke-width:0.3841;stroke-miterlimit:10;}
	.st5{fill:#214391;}
	.st6{fill:none;stroke:#214391;stroke-width:4.3237;stroke-linecap:round;stroke-miterlimit:10;}
	.st7{fill:none;stroke:#214391;stroke-width:6.1676;stroke-linecap:round;stroke-miterlimit:10;}
	.st8{fill:none;stroke:#214391;stroke-width:1.9566;stroke-linecap:round;stroke-miterlimit:10;}
	.st9{fill:#214490;}
	.st10{fill:#FFFFFF;}
	.st11{opacity:0.29;fill:#214391;}
	.st12{fill:none;stroke:#214391;stroke-width:2.5081;stroke-linecap:round;stroke-miterlimit:10;}
	.st13{fill:none;stroke:#214391;stroke-width:2.0814;stroke-linecap:round;stroke-miterlimit:10;}
	.st14{fill:none;stroke:#214391;stroke-width:1.3934;stroke-linecap:round;stroke-miterlimit:10;}
	.st15{fill:none;stroke:#214391;stroke-width:1.087;stroke-linecap:round;stroke-miterlimit:10;}
	.st16{fill:none;stroke:#214391;stroke-width:1.4073;stroke-linecap:round;stroke-miterlimit:10;}
	.st17{fill:none;stroke:#214391;stroke-width:1.8953;stroke-linecap:round;stroke-miterlimit:10;}
	.st18{fill:none;stroke:#214391;stroke-width:1.7348;stroke-linecap:round;stroke-miterlimit:10;}
	.st19{fill:none;stroke:#214391;stroke-width:1.7153;stroke-linecap:round;stroke-miterlimit:10;}
	.st20{fill:none;stroke:#224192;stroke-width:1.817;stroke-miterlimit:10;}
	.st21{opacity:0.7;fill:#214391;}
	.st22{opacity:0.8;}
	.st23{opacity:0.8;fill:#214391;}
	.st24{fill:none;stroke:#214391;stroke-width:1.7295;stroke-linecap:round;stroke-miterlimit:10;}
	.st25{fill:#FFFFFF;stroke:#224192;stroke-width:0.7604;stroke-miterlimit:10;}
	.st26{clip-path:url(#SVGID_7_);fill:#214391;}
	.st27{fill:none;stroke:#214391;stroke-width:3;stroke-miterlimit:10;}
	.st28{fill:none;stroke:#214391;stroke-width:3;stroke-linecap:round;stroke-miterlimit:10;}
	.st29{fill:none;stroke:#214391;stroke-width:2.9903;stroke-miterlimit:10;}
	.st30{fill:none;stroke:#214391;stroke-width:2.9903;stroke-linecap:round;stroke-miterlimit:10;}
	.st31{fill:none;stroke:#214391;stroke-width:2.9626;stroke-linecap:round;stroke-miterlimit:10;}
	.st32{fill:none;stroke:#214391;stroke-width:2.0277;stroke-miterlimit:10;}
	.st33{fill:none;stroke:#214391;stroke-width:2;stroke-miterlimit:10;}
	.st34{fill:none;stroke:#214391;stroke-width:1.9297;stroke-miterlimit:10;}
	.st35{fill:none;stroke:#214391;stroke-width:1.9699;stroke-miterlimit:10;}
	.st36{fill:none;stroke:#214391;stroke-width:2.028;stroke-linejoin:round;stroke-miterlimit:10;}
	.st37{fill:none;stroke:#214391;stroke-width:2.028;stroke-linecap:round;stroke-linejoin:round;stroke-miterlimit:10;}
	.st38{fill:none;stroke:#224192;stroke-width:5.3246;stroke-miterlimit:10;}
	.st39{fill:none;stroke:#224192;stroke-width:8;stroke-miterlimit:10;}
	.st40{fill:none;stroke:#234087;stroke-width:6.9549;stroke-miterlimit:10;}
	.st41{fill:none;stroke:#234087;stroke-width:5.1671;stroke-miterlimit:10;}
	.st42{fill:none;stroke:#234087;stroke-width:5.1671;stroke-linecap:round;stroke-miterlimit:10;}
	.st43{fill:none;stroke:#234087;stroke-width:3.7203;stroke-linecap:round;stroke-miterlimit:10;}
	.st44{fill:none;stroke:#234087;stroke-width:5.8912;stroke-miterlimit:10;}
	.st45{fill:none;stroke:#234087;stroke-width:6.7813;stroke-miterlimit:10;}
	.st46{fill:none;stroke:#234087;stroke-width:3.245;stroke-miterlimit:10;}
	.st47{fill:none;stroke:#234087;stroke-width:2.7814;stroke-miterlimit:10;}
</style>
<linearGradient id="SVGID_1_" gradientUnits="userSpaceOnUse" x1="-844.6957" y1="-217.5652" x2="-844.6957" y2="-218.5652">
	<stop offset="0" style="stop-color:#2E3F99"></stop>
	<stop offset="0.618" style="stop-color:#2A3182"></stop>
	<stop offset="0.6292" style="stop-color:#2A3491"></stop>
	<stop offset="0.9831" style="stop-color:#00629F"></stop>
</linearGradient>
<g id="Recycle">
</g>
<g id="Check_-_Grey">
</g>
<g id="Arrow_26">
</g>
<g id="Arrow_26_1_">
</g>
<g>
	<path class="st40" d="M134.32,71.46c0,34.57-28.02,62.6-62.6,62.6c-34.57,0-62.59-28.02-62.59-62.6c0-34.57,28.02-62.6,62.59-62.6   C106.29,8.87,134.32,36.89,134.32,71.46z"></path>
	<path class="st41" d="M93.75,76.09l-0.04-2.23c-0.03-1.13-0.27-2.27-0.82-3.26c-8.13-14.64-20.18,0-20.18,0   c-10.11-13.02-17.78-4.11-19.9-1.7c-0.32,0.37-1.05,2.76-1.05,3.25v4.08v12.48c0.65,15.29,17.39,18.6,17.39,18.6h7.12   c15.29-4.12,17.47-17.74,17.47-17.74V76.23c9.34-2.86,15.04-9.4,16.87-11.8c0.4-0.52,0.39-1.24-0.02-1.75   c-8.72-10.8-24.25-16.12-26.72-15.91c-2.23,0.19-9.36,4.48-11.03,5.5c-0.21,0.13-0.48,0.12-0.69-0.03   C63.98,46.36,60.2,47.2,60.2,47.2c-11.95,1.68-22.45,13.63-25.3,16.95c-0.44,0.51-0.4,1.28,0.08,1.75   c1.64,1.59,6.04,5.21,16.21,10.1"></path>
	<line class="st42" x1="72.71" y1="70.6" x2="72.71" y2="84.95"></line>
	<path class="st43" d="M81.2,82.16c0,0,3.56,4.04,4.41,7.32s-4.41,5.3-4.41,5.3s-4.33-1.54-4.45-4.41   C76.63,87.5,81.2,82.16,81.2,82.16z"></path>
	<line class="st44" x1="20.57" y1="33.04" x2="118.76" y2="107.67"></line>
</g>
</svg>