<svg xmlns="http://www.w3.org/2000/svg" id="Layer_1" data-name="Layer 1" viewBox="0 0 50 50"><defs><style>.cls-1{fill:none;stroke:#234087;stroke-miterlimit:10;stroke-width:2px;}</style></defs><circle class="cls-1" cx="25" cy="25" r="22.7657"></circle><path class="cls-1" d="M34.0954,38.2589H17.4006s-10.076-9.4646,2.8246-18.6974H31.2708S43.3281,26.8128,34.0954,38.2589Z"></path><path class="cls-1" d="M20.183,19.2453v-4.33a.5706.5706,0,0,1,.5706-.5706H30.3a.5706.5706,0,0,1,.5706.5706v4.33"></path><path class="cls-1" d="M22.839,14.3444V9.442a.7574.7574,0,0,1,.7574-.7574h4.0185a.7575.7575,0,0,1,.7575.7574v4.9024"></path><line class="cls-1" x1="14.1805" y1="26.8111" x2="37.114" y2="26.8111"></line><line class="cls-1" x1="9.6023" y1="8.2322" x2="41.6087" y2="40.5651"></line></svg>