<svg xmlns="http://www.w3.org/2000/svg" xmlns:xlink="http://www.w3.org/1999/xlink" id="Layer_1" x="0px" y="0px" viewBox="0 0 141.73 141.73" style="enable-background:new 0 0 141.73 141.73;" xml:space="preserve">
<style type="text/css">
	.Half_x0020_Highlight_x0020_Blue{fill:url(#SVGID_1_);stroke:#FFFFFF;stroke-width:0.25;stroke-miterlimit:1;}
	.st0{fill:none;stroke:#224192;stroke-width:2.8404;stroke-miterlimit:10;}
	.st1{fill:#224192;}
	.st2{fill-rule:evenodd;clip-rule:evenodd;fill:#224192;}
	.st3{fill:none;stroke:#224192;stroke-width:2.1049;stroke-miterlimit:10;}
	.st4{clip-path:url(#SVGID_5_);fill:none;stroke:#224192;stroke-width:0.3841;stroke-miterlimit:10;}
	.st5{fill:#214391;}
	.st6{fill:none;stroke:#214391;stroke-width:4.3237;stroke-linecap:round;stroke-miterlimit:10;}
	.st7{fill:none;stroke:#214391;stroke-width:6.1676;stroke-linecap:round;stroke-miterlimit:10;}
	.st8{fill:none;stroke:#214391;stroke-width:1.9566;stroke-linecap:round;stroke-miterlimit:10;}
	.st9{fill:#214490;}
	.st10{fill:#FFFFFF;}
	.st11{opacity:0.29;fill:#214391;}
	.st12{fill:none;stroke:#214391;stroke-width:2.5081;stroke-linecap:round;stroke-miterlimit:10;}
	.st13{fill:none;stroke:#214391;stroke-width:2.0814;stroke-linecap:round;stroke-miterlimit:10;}
	.st14{fill:none;stroke:#214391;stroke-width:1.3934;stroke-linecap:round;stroke-miterlimit:10;}
	.st15{fill:none;stroke:#214391;stroke-width:1.087;stroke-linecap:round;stroke-miterlimit:10;}
	.st16{fill:none;stroke:#214391;stroke-width:1.4073;stroke-linecap:round;stroke-miterlimit:10;}
	.st17{fill:none;stroke:#214391;stroke-width:1.8953;stroke-linecap:round;stroke-miterlimit:10;}
	.st18{fill:none;stroke:#214391;stroke-width:1.7348;stroke-linecap:round;stroke-miterlimit:10;}
	.st19{fill:none;stroke:#214391;stroke-width:1.7153;stroke-linecap:round;stroke-miterlimit:10;}
	.st20{fill:none;stroke:#224192;stroke-width:1.817;stroke-miterlimit:10;}
	.st21{opacity:0.7;fill:#214391;}
	.st22{opacity:0.8;}
	.st23{opacity:0.8;fill:#214391;}
	.st24{fill:none;stroke:#214391;stroke-width:1.7295;stroke-linecap:round;stroke-miterlimit:10;}
	.st25{fill:#FFFFFF;stroke:#224192;stroke-width:0.7604;stroke-miterlimit:10;}
	.st26{clip-path:url(#SVGID_7_);fill:#214391;}
	.st27{fill:none;stroke:#214391;stroke-width:3;stroke-miterlimit:10;}
	.st28{fill:none;stroke:#214391;stroke-width:3;stroke-linecap:round;stroke-miterlimit:10;}
	.st29{fill:none;stroke:#214391;stroke-width:2.9903;stroke-miterlimit:10;}
	.st30{fill:none;stroke:#214391;stroke-width:2.9903;stroke-linecap:round;stroke-miterlimit:10;}
	.st31{fill:none;stroke:#214391;stroke-width:2.9626;stroke-linecap:round;stroke-miterlimit:10;}
	.st32{fill:none;stroke:#214391;stroke-width:2.0277;stroke-miterlimit:10;}
	.st33{fill:none;stroke:#214391;stroke-width:2;stroke-miterlimit:10;}
	.st34{fill:none;stroke:#214391;stroke-width:1.9297;stroke-miterlimit:10;}
	.st35{fill:none;stroke:#214391;stroke-width:1.9699;stroke-miterlimit:10;}
	.st36{fill:none;stroke:#214391;stroke-width:2.028;stroke-linejoin:round;stroke-miterlimit:10;}
	.st37{fill:none;stroke:#214391;stroke-width:2.028;stroke-linecap:round;stroke-linejoin:round;stroke-miterlimit:10;}
	.st38{fill:none;stroke:#224192;stroke-width:5.3246;stroke-miterlimit:10;}
	.st39{fill:none;stroke:#224192;stroke-width:8;stroke-miterlimit:10;}
</style>
<linearGradient id="SVGID_1_" gradientUnits="userSpaceOnUse" x1="-420.5217" y1="-217.5652" x2="-420.5217" y2="-218.5652">
	<stop offset="0" style="stop-color:#2E3F99"></stop>
	<stop offset="0.618" style="stop-color:#2A3182"></stop>
	<stop offset="0.6292" style="stop-color:#2A3491"></stop>
	<stop offset="0.9831" style="stop-color:#00629F"></stop>
</linearGradient>
<g id="Recycle">
</g>
<g id="Check_-_Grey">
</g>
<g id="Arrow_26">
</g>
<g id="Arrow_26_1_">
</g>
<g>
	<path class="st38" d="M35.92,80.77l-3.94,4.92c-2.54,2.75-3.88,6.33-3.88,9.99c0,8.19,6.7,14.91,14.91,14.91h52.16   c8.21,0,14.91-6.71,14.91-14.91c0-3.66-1.34-7.24-3.72-9.85l-4.1-5.07L80.26,53.35V36.06c0-2.08-1.64-3.72-3.72-3.72H61.63   c-2.09,0-3.72,1.64-3.72,3.72v17.29L35.92,80.77"></path>
	<path class="st38" d="M83,35.08H53.19c-2.05,0-3.72-1.66-3.72-3.72c0-2.06,1.67-3.72,3.72-3.72H83c2.06,0,3.73,1.67,3.73,3.72   C86.73,33.42,85.06,35.08,83,35.08"></path>
	<path class="st39" d="M83,35.08H53.19c-2.05,0-3.72-1.66-3.72-3.72c0-2.06,1.67-3.72,3.72-3.72H83c2.06,0,3.73,1.67,3.73,3.72   C86.73,33.42,85.06,35.08,83,35.08z"></path>
	<circle class="st38" cx="70.9" cy="71.19" r="65.67"></circle>
	<line class="st38" x1="15.29" y1="36.28" x2="120.24" y2="114.48"></line>
</g>
</svg>