<svg xmlns="http://www.w3.org/2000/svg" width="279.422" height="192.925" viewBox="0 0 279.422 192.925"><defs><style>.a{fill:#e6e6e6;}.b{fill:#fff;}.c{fill:#ccc;}.d{fill:#03afb4;}.e{fill:#ffb8b8;}.f{fill:#2f2e41;}</style></defs><g transform="translate(-1334.159 613)"><g transform="translate(4582.284 -11023.9)"><path class="a" d="M246.073,671.639l-1.694-6.681a86.749,86.749,0,0,0-9.2-3.3l-.214,3.105-.867-3.421c-3.879-1.109-6.518-1.6-6.518-1.6s3.564,13.555,11.041,23.917l8.711,1.53-6.768.976a35.1,35.1,0,0,0,3.026,3.208c10.876,10.1,22.989,14.727,27.057,10.345s-1.453-16.117-12.328-26.211a46.222,46.222,0,0,0-11.847-7.618Z" transform="translate(-3435.86 9901.783)"/><path class="a" d="M324.9,621l2-6.595a86.751,86.751,0,0,0-6.172-7.585l-1.788,2.548,1.026-3.377c-2.748-2.953-4.755-4.735-4.755-4.735s-3.955,13.446-2.912,26.181l6.666,5.813-6.3-2.663a35.113,35.113,0,0,0,.933,4.311c4.092,14.264,12.068,24.49,17.814,22.842s7.088-14.548,3-28.812a46.216,46.216,0,0,0-6.2-12.645Z" transform="translate(-3498.58 9945.17)"/><path class="a" d="M471.863,122.165h-1.057V93.217a16.755,16.755,0,0,0-16.755-16.755H392.717a16.755,16.755,0,0,0-16.755,16.755V252.034a16.755,16.755,0,0,0,16.755,16.755h61.334a16.755,16.755,0,0,0,16.755-16.755V142.772h1.057Z" transform="translate(-3545.927 10334.438)"/><path class="b" d="M468.007,93.335H460a5.945,5.945,0,0,1-5.5,8.19H419.359a5.945,5.945,0,0,1-5.5-8.19h-7.478a12.513,12.513,0,0,0-12.513,12.513V264.435a12.513,12.513,0,0,0,12.513,12.513h61.629a12.513,12.513,0,0,0,12.513-12.513h0V105.848a12.513,12.513,0,0,0-12.512-12.512Z" transform="translate(-3559.207 10321.922)"/><path class="c" d="M500.972,277.858H485.8a.545.545,0,0,1-.545-.545V262.141a.545.545,0,0,1,.545-.545h15.172a.545.545,0,0,1,.545.545v15.172A.545.545,0,0,1,500.972,277.858ZM485.8,261.815a.327.327,0,0,0-.327.327v15.172a.327.327,0,0,0,.327.327h15.172a.327.327,0,0,0,.327-.327V262.141a.327.327,0,0,0-.327-.327Z" transform="translate(-3640.458 10213.618)"/><path class="c" d="M500.972,277.858H485.8a.545.545,0,0,1-.545-.545V262.141a.545.545,0,0,1,.545-.545h15.172a.545.545,0,0,1,.545.545v15.172A.545.545,0,0,1,500.972,277.858ZM485.8,261.815a.327.327,0,0,0-.327.327v15.172a.327.327,0,0,0,.327.327h15.172a.327.327,0,0,0,.327-.327V262.141a.327.327,0,0,0-.327-.327Z" transform="translate(-3622.57 10213.618)"/><path class="c" d="M500.972,277.858H485.8a.545.545,0,0,1-.545-.545V262.141a.545.545,0,0,1,.545-.545h15.172a.545.545,0,0,1,.545.545v15.172A.545.545,0,0,1,500.972,277.858ZM485.8,261.815a.327.327,0,0,0-.327.327v15.172a.327.327,0,0,0,.327.327h15.172a.327.327,0,0,0,.327-.327V262.141a.327.327,0,0,0-.327-.327Z" transform="translate(-3604.682 10213.618)"/><path class="c" d="M500.972,277.858H485.8a.545.545,0,0,1-.545-.545V262.141a.545.545,0,0,1,.545-.545h15.172a.545.545,0,0,1,.545.545v15.172A.545.545,0,0,1,500.972,277.858ZM485.8,261.815a.327.327,0,0,0-.327.327v15.172a.327.327,0,0,0,.327.327h15.172a.327.327,0,0,0,.327-.327V262.141a.327.327,0,0,0-.327-.327Z" transform="translate(-3586.795 10213.618)"/><circle class="d" cx="1.782" cy="1.782" r="1.782" transform="translate(-3149.511 10481.72)"/><path class="d" d="M610.659,646.539h-22.1a1.325,1.325,0,0,1-1.44-1.162v-6.251a1.325,1.325,0,0,1,1.44-1.162h22.1a1.325,1.325,0,0,1,1.44,1.162v6.251A1.325,1.325,0,0,1,610.659,646.539Z" transform="translate(-3720.697 9865.905)"/><circle class="d" cx="1.782" cy="1.782" r="1.782" transform="translate(-3131.624 10481.72)"/><circle class="d" cx="1.782" cy="1.782" r="1.782" transform="translate(-3113.736 10481.72)"/><circle class="d" cx="1.782" cy="1.782" r="1.782" transform="translate(-3095.848 10481.72)"/><path class="a" d="M527.222,821.731H249.948c-.594,0-1.074-.141-1.074-.315s.481-.315,1.074-.315H527.222c.593,0,1.074.141,1.074.315S527.815,821.731,527.222,821.731Z" transform="translate(-3496.999 9782.094)"/><path class="e" d="M781.553,543.462a2.617,2.617,0,0,1,.364.2l11.583-4.944.413-3.051,4.628-.028-.273,7-15.288,4.043a2.721,2.721,0,0,1-.116.312,2.643,2.643,0,1,1-1.312-3.533Z" transform="translate(-3844.015 9993.837)"/><path class="e" d="M623.56,699.945h-3.166l-1.506-12.212h4.673Z" transform="translate(-3667.351 9900.768)"/><path class="f" d="M604.92,731.518h6.106v3.844h-9.95A3.844,3.844,0,0,1,604.92,731.518Z" transform="translate(-3654.139 9868.289)"/><path class="e" d="M667.865,696.65l-3.151.31-2.7-12.005,4.65-.458Z" transform="translate(-3699.343 9903.167)"/><path class="f" d="M3.844,0H9.95V3.844H0A3.844,3.844,0,0,1,3.844,0Z" transform="translate(-3040.795 10599.825) rotate(-5.625)"/><circle class="e" cx="6.343" cy="6.343" r="6.343" transform="translate(-3049.252 10503.869)"/><path class="f" d="M825.809,673.708a1.155,1.155,0,0,1-1.14-.955c-1.639-9.1-7-38.841-7.123-39.664a.368.368,0,0,1,0-.057v-2.218a.385.385,0,0,1,.072-.225l.708-.991a.382.382,0,0,1,.3-.161c4.034-.189,17.246-.744,17.885.054h0c.641.8.415,3.23.363,3.708l0,.05,5.936,37.96a1.165,1.165,0,0,1-.959,1.326l-3.707.611a1.168,1.168,0,0,1-1.3-.8c-1.147-3.664-4.992-15.99-6.324-20.759a.129.129,0,0,0-.253.036c.067,4.546.227,16.146.283,20.152l.006.432a1.167,1.167,0,0,1-1.057,1.171l-3.575.325C825.881,673.707,825.845,673.708,825.809,673.708Z" transform="translate(-3873.474 9924.534)"/><path class="d" d="M827.148,493.559a5.3,5.3,0,0,0-2.149,3.1,29.364,29.364,0,0,0-1.261,7.014l-.4,7.127-4.972,18.9c4.31,3.646,6.8,2.818,12.6-.165s6.464.995,6.464.995l1.16-16.078,1.658-17.569a7.792,7.792,0,0,0-1.255-1.207,12.824,12.824,0,0,0-10.96-2.323Z" transform="translate(-3874.083 10025.49)"/><path class="e" d="M835.65,554.9a2.718,2.718,0,0,1,.387.182l11.453-5.732.19-3.105,4.724-.326.253,7.079-15.3,5.061a2.71,2.71,0,1,1-1.7-3.159Z" transform="translate(-3884.2 9986.213)"/><path class="d" d="M885.366,507.429c2.818.995,3.314,11.769,3.314,11.769-3.315-1.823-7.293,1.16-7.293,1.16s-.829-2.818-1.823-6.464a6.335,6.335,0,0,1,1.326-5.967A4.513,4.513,0,0,1,885.366,507.429Z" transform="translate(-3919.29 10015.018)"/><path class="f" d="M855.444,437.282c-.79-.632-1.868.517-1.868.517l-.632-5.69a22.591,22.591,0,0,1-6.48-.158c-2.529-.631-2.924,2.292-2.924,2.292a20.3,20.3,0,0,1-.079-3.556c.158-1.422,2.213-2.845,5.848-3.793s5.532,3.161,5.532,3.161C857.369,431.319,856.234,437.915,855.444,437.282Z" transform="translate(-3892.667 10074.607)"/></g></g></svg>