<svg xmlns="http://www.w3.org/2000/svg" id="Layer_1" data-name="Layer 1" viewBox="0 0 669.6 669.41"><defs><style>.cls-1{fill:#214194;}</style></defs><path class="cls-1" d="M344.54,18.16C524.79,17,680.15,163.93,679.2,354.68c-1,187.88-155.42,335.57-339.92,332.85C158.86,684.87,9.31,537.43,9.6,352.15,9.89,165.44,162.65,16.93,344.54,18.16Zm309.3,334.49C654,182.81,517.12,47.27,352.15,43.3,178,39.1,35.08,179.51,34.88,352.13c-.2,171.35,138.08,307.61,304.7,310.1C512.79,664.81,654.32,524.36,653.84,352.65Z" transform="translate(-9.6 -18.15)"></path><path class="cls-1" d="M253.06,425.63l33.38,3.86v19.29H165V429.45c10.41-1,20.62-2.07,30.85-2.83,3.51-.26,5-1.22,5-5.1-.14-38.18-.08-76.36-.09-114.55,0-1.33-.15-2.66-.24-4.15l-38.76,7.35c-1.18-8.29-2.31-16.14-3.47-24.27,4.32-1.2,8.41-2.17,12.41-3.46a181.41,181.41,0,0,0,52.42-26.5,8.19,8.19,0,0,1,5.27-1.33c8.11.84,16.18,2,24.7,3.09Z" transform="translate(-9.6 -18.15)"></path><path class="cls-1" d="M450.77,302.59c-7.11,1.46-13.44,2.85-19.8,4.05s-12.46,2.16-19.2,3.32c-1.15-8.12-2.24-15.86-3.37-23.93,5.34-1.61,10.54-3,15.64-4.73a177,177,0,0,0,49-25.27,8.91,8.91,0,0,1,5.71-1.36c8,.8,15.89,2,24.4,3V425.62l33.46,3.9v19.2H415.14V429.48c10-1,20-2.16,30.09-2.79,4.18-.26,5.66-1.4,5.64-5.83-.17-37.73-.1-75.45-.1-113.18Z" transform="translate(-9.6 -18.15)"></path><path class="cls-1" d="M373.36,298.59c0,16.75-12,27.54-30.86,27.59-15.69,0-27.14-10.69-27.19-25.48-.05-16.3,12.79-27.91,30.92-27.95C362.38,272.72,373.33,283.15,373.36,298.59Z" transform="translate(-9.6 -18.15)"></path><path class="cls-1" d="M373.36,424.42c-.08,16.74-12.31,27.31-31.58,27.3-14.93,0-26.54-11.35-26.47-25.85.08-16.16,13.14-27.71,31.24-27.63C362.57,398.3,373.43,408.91,373.36,424.42Z" transform="translate(-9.6 -18.15)"></path></svg>