<svg xmlns="http://www.w3.org/2000/svg" id="Layer_1" data-name="Layer 1" viewBox="0 0 663.63 665.28"><defs><style>.cls-1{fill:#214194;}</style></defs><path class="cls-1" d="M383.63,272.9c11.49,4.28,22.66,8.47,33.84,12.61,18,6.68,36.17,13.13,54.08,20.12A45,45,0,0,1,485.22,314a17.25,17.25,0,0,1,.34,25.15q-46.74,46.83-93.7,93.44c-2.38,2.37-4.79,4.71-7.17,7.08-31.23,31.15-62.71,62.06-93.53,93.61-8.14,8.34-17.72,7.14-25.17,3.88-10.32-4.5-14.06-13.35-10.93-24.15a45.59,45.59,0,0,1,3.48-8.47q28.59-54.17,57.31-108.28c3.13-5.9,6.29-11.8,9.71-18.21-1.77-.7-3.18-1.29-4.62-1.81Q273.48,359,226,341.78c-7.88-2.86-9.63-4.94-9.62-13.3,0-7.27,1.89-13.71,7.49-19.29q94.86-94.45,189.25-189.38c5.6-5.64,11.66-6.38,18.52-6.46a25.34,25.34,0,0,1,6.06.76c11.8,2.77,16.55,15.3,10.41,27.86-8.64,17.69-17.47,35.28-26.19,52.93Q403.6,232,385.34,269C384.77,270.18,384.3,271.37,383.63,272.9Z" transform="translate(-21.62 -18.24)"></path><path class="cls-1" d="M123.76,167c16.27,0,31.77.75,47.15-.2,15.67-1,29.4,9,30.55,23.94,1.22,15.87-10.19,29.29-26.08,29.54-24.08.37-48.18.46-72.24-.18a77.88,77.88,0,0,1-24.26-4.79c-19.63-7.18-30.41-23.72-30.41-44.63,0-24.1-.07-48.19,0-72.29C48.56,83.2,60,71.25,74.56,70.89c15.36-.38,27.35,11.41,27.6,27.25.15,10.07.15,20.15.24,30.23,0,1.38.16,2.76.3,5.15,3.3-3.54,5.91-6.4,8.59-9.19,45.5-47.42,99.2-81,163.43-96.84,34.14-8.41,68.72-10.41,103.82-8.67,96,4.75,209.1,70.26,262.22,165.35C661,220.31,675,258.59,681,299.54c2.42,16.55,3.28,33.36,4.24,50.09.45,7.88-3.42,14.23-10.86,17.5-6.91,3.05-13.73,2.38-19.73-2.53-4.56-3.72-6.55-8.64-6.65-14.59-1.22-71.58-24-135.35-70.19-190.23C545.09,121,503.64,94.44,457.22,74.85c-39.06-16.5-79.88-21.6-121.67-18.93-85.76,5.47-154.65,44.27-210.13,108.65C125,165.09,124.64,165.72,123.76,167Z" transform="translate(-21.62 -18.24)"></path><path class="cls-1" d="M605.34,568.42c-8.92,8.51-17.38,16.74-26,24.79-49.29,46.08-106.92,75.52-173.7,86.26-34.09,5.48-68.24,5.13-102.49.55-74.31-9.93-183.25-64.34-238.73-165.6-20.6-37.61-34.27-77.52-39.73-120.07-1.69-13.14-2.56-26.42-3.05-39.67-.4-10.71,5.07-17.81,14-20.11a18.21,18.21,0,0,1,23.13,17.61c.82,52.87,14.31,102.28,40.79,148.05C127.14,547.88,166,583.87,214.3,609.81,240.19,623.72,267,635.49,296.13,641a302.19,302.19,0,0,0,90.19,3.35c67.54-7.63,124.77-36.59,173.05-83.89,7.71-7.55,14.81-15.71,22.16-23.63a23.08,23.08,0,0,0,2-3c-2.16-.15-3.68-.37-5.2-.35-14.74.24-29.47.43-44.2.81-14.37.36-26.6-9.84-28-23.58-1.5-14.66,7.89-27.22,22.49-29.58a92.87,92.87,0,0,1,14.82-1c20.89,0,41.79-.43,62.66.32,20.66.75,38.48,8,48.2,27.76a48.58,48.58,0,0,1,4.6,19.78c.55,25,.28,49.95.28,74.93a26.61,26.61,0,0,1-53.19,1.18c-.37-10.36-.41-20.72-.58-31.09C605.32,571.43,605.34,569.88,605.34,568.42Z" transform="translate(-21.62 -18.24)"></path></svg>