<svg xmlns="http://www.w3.org/2000/svg" id="Layer_1" data-name="Layer 1" viewBox="0 0 50 50"><defs><style>.cls-1{fill:none;}.cls-1,.cls-2{stroke:#214688;stroke-miterlimit:10;stroke-width:2px;}.cls-2{fill:#fff;}</style></defs><circle class="cls-1" cx="25" cy="25" r="22.2492"></circle><path class="cls-1" d="M25,34.2317S32.36,27.8329,33.8378,25a5.6379,5.6379,0,0,0,.125-3.03c-.1477-1.3467-4.2786-7.0572-9.0246-.9432,0,0-5.499-6.7618-9.1824,1.2468a4.9833,4.9833,0,0,0,.2627,2.4125C17.6975,27.5,25,34.2317,25,34.2317Z"></path><path class="cls-1" d="M16.3367,11.6223s9.87-6.6652,18.9046,1.3807"></path><path class="cls-1" d="M13.8479,36.2545s11.83,10.7393,23.2856-1.125"></path><path class="cls-2" d="M40.2246,27.0494V42.9368s2.0456,3.7957,3.8639,0V5.3207H42.2247s-3.0456.9774-3.4547,3.9321V25.822s-.1875,1.2274,1.3466,1.2274h1.8581"></path><path class="cls-2" d="M6.8816,42.96V21.049s-1.7445-.9205-1.94-2.0882V5.48H13.132V18.117s-.0228.8523-.25,1.08a13.8179,13.8179,0,0,1-2.0456,1.5456c-.2955.0795,0,22.5241,0,22.5241S8.5749,46.38,6.8816,42.96Z"></path><line class="cls-1" x1="7.4725" y1="5.4798" x2="7.4725" y2="16.1169"></line><line class="cls-1" x1="10.3818" y1="5.4798" x2="10.3818" y2="16.2078"></line></svg>