<svg xmlns="http://www.w3.org/2000/svg" width="49.998" height="34.213" viewBox="0 0 49.998 34.213"><defs><style>.a{fill:#daf1f3;}.b{fill:#40566b;}.c{fill:#00c0b7;}</style></defs><g transform="translate(-287 -267.157)"><g transform="translate(289 268.176)"><path class="a" d="M149.911,491.618V522.19l-2.322,2.622-2.324-2.622-2.32,2.622-2.322-2.622-2.322,2.622-2.32-2.622-2.32,2.622-2.322-2.622V491.618Z" transform="translate(-103.167 -491.618)"/><path class="a" d="M149.911,491.618V522.19l-2.322,2.622-2.324-2.622-2.32,2.622-2.322-2.622-2.322,2.622-2.32-2.622-2.32,2.622-2.322-2.622V491.618Z" transform="translate(-117.254 -491.618)"/><path class="a" d="M149.911,491.618V522.19l-2.322,2.622-2.324-2.622-2.32,2.622-2.322-2.622-2.322,2.622-2.32-2.622-2.32,2.622-2.322-2.622V491.618Z" transform="translate(-131.341 -491.618)"/></g><path class="b" d="M-19.139-10.935h7.046v.015A10.927,10.927,0,0,1-12.8-9.9h-1.882a2.459,2.459,0,0,1,.527,1.106h2.007q.037.007.037.029-.674,1.011-.688,1.011h-1.3A2.99,2.99,0,0,1-14.6-6.5a3.06,3.06,0,0,1-1.15.959,4.547,4.547,0,0,1-1.963.491v.015a2.714,2.714,0,0,0,.461.608l3.479,4.2v.2q0,.029-.037.029h-1.531q-4.131-4.812-4.131-4.834v-.974l.015-.037a6.263,6.263,0,0,0,.857.051q2.314,0,2.878-1.5a1.212,1.212,0,0,0,.088-.454H-19.82a.026.026,0,0,1-.029-.029q.7-1.011.71-1.011h3.325V-8.8a1.95,1.95,0,0,0-1.106-.9,3.452,3.452,0,0,0-1.055-.19h-1.86v-.037Q-19.161-10.935-19.139-10.935Zm12.066,6.51c1.8,0,1.89.87,1.89,1.275,0,1.11-1.395,1.275-2.04,1.275-.975,0-1.875-.33-1.995-1.32h-2.355c.165,2.46,2.3,3.4,4.335,3.4,1.815,0,4.125-.42,4.5-2.715A2.552,2.552,0,0,0-4.342-5.37,2.3,2.3,0,0,0-3.007-7.98c-.315-2-2.4-2.7-4.14-2.7-2,0-4.065.8-4.26,3.15h2.325c.165-.87,1.095-1.02,1.92-1.02,1.56,0,1.86.735,1.86,1.185-.015.975-1.155,1.035-1.92,1.035H-8.677v1.905Zm8.16-1.59C1.088-7.86,2.138-8.7,3.473-8.7s2.31.9,2.31,2.685V-4.5c0,1.845-1.005,2.73-2.355,2.73s-2.34-.885-2.34-2.73ZM-1.237-4.5A4.479,4.479,0,0,0,3.5.3a4.429,4.429,0,0,0,4.59-4.815V-6.03c0-3.21-2.07-4.8-4.62-4.8a4.422,4.422,0,0,0-4.71,4.8Zm13.17-1.515c0-1.845,1.05-2.685,2.385-2.685s2.31.9,2.31,2.685V-4.5c0,1.845-1.005,2.73-2.355,2.73s-2.34-.885-2.34-2.73ZM9.608-4.5A4.479,4.479,0,0,0,14.347.3a4.429,4.429,0,0,0,4.59-4.815V-6.03c0-3.21-2.07-4.8-4.62-4.8a4.422,4.422,0,0,0-4.71,4.8Z" transform="translate(312.849 289.829)"/><path class="c" d="M172.389,491.077H124.851a1.23,1.23,0,0,1,0-2.459h47.539a1.23,1.23,0,1,1,0,2.459Z" transform="translate(163.379 -221.461)"/></g></svg>