<svg xmlns="http://www.w3.org/2000/svg" width="45.626" height="37.353" viewBox="0 0 45.626 37.353"><defs><style>.a{fill:#fea856;}.b{fill:#f6cf76;}.c{fill:#40566b;}.d{fill:#00c0b7;}</style></defs><g transform="translate(-1600.982 -382)"><g transform="translate(979.672 -282.359)"><path class="a" d="M684.186,715.423l-1.172,4.632a2.339,2.339,0,0,1-2.152,1.675H656.252a2.325,2.325,0,0,1-2.142-1.679l-1.179-4.643h31.2Z" transform="translate(-20.006 -32.297)"/><path class="b" d="M683.032,698.269l-1.6,6.31-.051-.015h-31.2l-1.6-6.3Z" transform="translate(-17.254 -21.454)"/><path class="a" d="M680.192,681.809a1.28,1.28,0,0,1,1.3,1.675l-1.106,4.372H645.936l-1.536-6.046Z" transform="translate(-14.608 -11.04)"/><path class="c" d="M649.628,700.9a3.051,3.051,0,0,1-2.855-2.238l-4.311-16.98,1.424-.362L648.2,698.3a1.593,1.593,0,0,0,1.43,1.125Z" transform="translate(-13.382 -10.728)"/><path class="c" d="M648.113,740.293h-3.3a4.838,4.838,0,1,1,0-9.675h27.851a.735.735,0,1,1,0,1.469H644.818a3.368,3.368,0,1,0,0,6.737h3.3a.735.735,0,0,1,0,1.469Z" transform="translate(-11.812 -41.92)"/><path class="c" d="M629.791,671.5a.735.735,0,0,1-.71-.548l-1.145-4.336-5.988-.8a.735.735,0,1,1,.194-1.456l6.963.928,1.4,5.288a.737.737,0,0,1-.711.923Z"/><path class="c" d="M672.217,752.6a1.368,1.368,0,1,1-1.366-1.37A1.369,1.369,0,0,1,672.217,752.6Z" transform="translate(-30.476 -54.96)"/><path class="c" d="M717.868,752.6a1.368,1.368,0,1,1-1.366-1.37A1.369,1.369,0,0,1,717.868,752.6Z" transform="translate(-59.358 -54.96)"/><path class="c" d="M691.656,754.427h-8.62a.735.735,0,0,1,0-1.469h8.62a.735.735,0,1,1,0,1.469Z" transform="translate(-38.587 -56.054)"/><path class="d" d="M666.195,743.858a4.075,4.075,0,1,1-4.074,4.077A4.077,4.077,0,0,1,666.195,743.858Zm1.366,4.077a1.369,1.369,0,1,0-1.366,1.366A1.37,1.37,0,0,0,667.561,747.935Z" transform="translate(-25.82 -50.297)"/><path class="d" d="M711.843,743.858a4.075,4.075,0,1,1-4.074,4.077A4.077,4.077,0,0,1,711.843,743.858Zm1.366,4.077a1.368,1.368,0,1,0-1.366,1.366A1.37,1.37,0,0,0,713.21,747.935Z" transform="translate(-54.7 -50.297)"/></g></g></svg>