<svg xmlns="http://www.w3.org/2000/svg" width="45.53" height="35.37" viewBox="0 0 45.53 35.37"><defs><style>.a{fill:#d7e9f7;}.b{fill:#40566b;}.c{fill:#ff6d3a;}</style></defs><g transform="translate(-1480 -383)"><g transform="translate(1332.331 251.07)"><path class="a" d="M243.734,341.615h5.314v4.026a1.61,1.61,0,0,1-1.61,1.61h-3.7Z" transform="translate(-85.561 -186.758)"/><path class="b" d="M388.108,269.861a3.669,3.669,0,1,1-3.669-3.669A3.669,3.669,0,0,1,388.108,269.861Z" transform="translate(-207.613 -119.582)"/><path class="b" d="M200.383,321.316A1.584,1.584,0,0,1,198.8,322.9h-1.735a1.584,1.584,0,0,1-1.584-1.585l-2.268-12.941a1.584,1.584,0,0,1,1.584-1.585h4a1.585,1.585,0,0,1,1.584,1.585Z" transform="translate(-40.563 -155.741)"/><path class="a" d="M488.189,286.872h6.932a.724.724,0,0,1,0,1.447v0h-6.932v0a.724.724,0,1,1,0-1.448Z" transform="translate(-302.64 -138.001)"/><path class="a" d="M469.012,198.217l4.9-4.9a.724.724,0,0,1,1.024,1.024l0,0-4.9,4.9,0,0a.724.724,0,1,1-1.024-1.024Z" transform="translate(-286.017 -54.488)"/><path class="c" d="M175.705,143.392a13.132,13.132,0,0,1-11.964,8.819h-8.62v.011a7.55,7.55,0,0,0,0,15.1v.008h9.562a13.135,13.135,0,0,1,11.044,8.819h.585V143.392Z" transform="translate(0 -10.209)"/><path class="a" d="M401.368,133.412v32.421h0a1.481,1.481,0,0,0,2.962,0h.009V133.412h-.008a1.482,1.482,0,1,0-2.964,0Z" transform="translate(-225.959)"/><path class="b" d="M162.548,239.165V224.047h-7.427v.011a7.55,7.55,0,0,0,0,15.1v.008Z" transform="translate(0 -82.045)"/><path class="a" d="M470.062,336.07l4.9,4.9a.724.724,0,0,1-1.024,1.023l0,0-4.9-4.9,0,0a.724.724,0,1,1,1.024-1.024Z" transform="translate(-286.041 -181.63)"/></g></g></svg>