<svg width="27" height="28" viewBox="0 0 27 28" fill="none" xmlns="http://www.w3.org/2000/svg">
<path d="M15.8266 20.8332H3.77338V21.5024H15.8266V20.8332Z" fill="#5873A9"/>
<path d="M15.8266 21.5025H3.77338V22.172H15.8266V21.5025Z" fill="#284A8D"/>
<path d="M15.8266 22.172H3.77338V22.841H15.8266V22.172Z" fill="#234087"/>
<path d="M3.7734 22.8421L2.65479 22.1714V21.5035L3.7734 20.8334V22.8421Z" fill="white"/>
<path d="M3.7734 22.8421V22.172L2.65479 21.9486V22.1715L3.7734 22.8421Z" fill="#CCCBCA"/>
<path d="M2.65477 22.1715L2.09668 21.8367L2.65477 21.5035V22.1715Z" fill="#234087"/>
<path d="M16.4716 22.172H15.8265V22.841H16.4716V22.172Z" fill="#CCCBCA"/>
<path d="M16.4716 20.8334H15.8265V22.1719H16.4716V20.8334Z" fill="white"/>
<path d="M16.6218 22.841H16.4714V22.1714H16.6218C16.8687 22.1714 17.1171 22.0742 17.3068 21.8779C17.4118 21.7676 17.4884 21.6394 17.5342 21.5024C17.5709 21.61 17.59 21.7225 17.59 21.8367C17.5903 22.0937 17.4954 22.3508 17.3068 22.5475C17.1171 22.7437 16.8687 22.841 16.6218 22.841Z" fill="#F89A50"/>
<path d="M16.6218 22.1715H16.4714L16.4719 20.8318L16.6218 20.8329C16.8687 20.8324 17.1181 20.9307 17.3068 21.1269C17.4113 21.2351 17.4871 21.3655 17.5342 21.5025C17.4884 21.6395 17.4118 21.7677 17.3068 21.878C17.1171 22.0742 16.8687 22.1715 16.6218 22.1715Z" fill="#FABF8E"/>
<path d="M24.9034 18.8841C24.9034 19.1259 24.814 19.3678 24.6364 19.5526C24.4579 19.7373 24.2245 19.8297 23.9913 19.8297H3.00798C2.7753 19.8297 2.54186 19.7373 2.36339 19.5526C2.18573 19.3678 2.09668 19.1259 2.09668 18.8841V6.10348C2.09668 5.86168 2.18578 5.61925 2.36339 5.43501C2.54186 5.25021 2.7753 5.15787 3.00798 5.15787H23.9913C24.2244 5.15787 24.4579 5.25027 24.6363 5.43501C24.814 5.61925 24.9033 5.86162 24.9033 6.10348L24.9034 18.8841Z" fill="#FABF8E"/>
<path d="M22.4306 22.8356V19.8297H19.5319L22.4306 22.8356Z" fill="#FABF8E"/>
<path d="M22.4307 16.2054H4.56891V17.2657H22.4307V16.2054Z" fill="white"/>
<path d="M22.4306 14.0842H12.7496V15.145H22.4306V14.0842Z" fill="white"/>
<path d="M22.4306 11.9636H12.7496V13.0239H22.4306V11.9636Z" fill="white"/>
<path d="M22.4306 9.8425H12.7496V10.9033H22.4306V9.8425Z" fill="white"/>
<path d="M17.59 7.72195H12.7496V8.78226H17.59V7.72195Z" fill="#234087"/>
<path d="M11.727 7.72195H4.56866V15.1451H11.727V7.72195Z" fill="#F58020"/>
<path d="M8.85039 9.27188H7.44542L5.87823 13.5951H7.19411L7.39693 12.8815H8.85957L9.06812 13.5951H10.4173L8.85039 9.27188ZM7.67708 11.9468L8.13198 10.393L8.59184 11.9468H7.67708Z" fill="white"/>
</svg>
