<svg width="29" height="29" viewBox="0 0 29 29" fill="none" xmlns="http://www.w3.org/2000/svg">
<path d="M15.9432 17.0443L14.5 18.4574L13.0568 17.0442" fill="#234087"/>
<path d="M15.9432 17.0443L14.5 18.4574L13.0568 17.0442" stroke="#234087" stroke-width="1.5" stroke-linecap="round" stroke-linejoin="round"/>
<path d="M13.7844 17.7567L12.3563 24.8533L14.4999 27.0153" fill="#234087"/>
<path d="M13.7844 17.7567L12.3563 24.8533L14.4999 27.0153" stroke="#234087" stroke-width="1.5" stroke-linecap="round" stroke-linejoin="round"/>
<path d="M15.2156 17.7567L16.6437 24.8533L14.5 27.0153" fill="#234087"/>
<path d="M15.2156 17.7567L16.6437 24.8533L14.5 27.0153" stroke="#234087" stroke-width="1.5" stroke-linecap="round" stroke-linejoin="round"/>
<path d="M18.4508 23.75L24.1346 22.5727L23.3831 18.8107C23.2171 17.9812 22.7664 17.2263 22.1124 16.6858C21.6946 16.3423 21.2719 16.1212 20.8669 16.0322L17.6544 15.0994C17.5847 15.0792 17.5185 15.0483 17.4584 15.0076C17.289 14.8935 17.178 14.7112 17.1543 14.5084L17.006 13.2372C17.9058 12.5386 18.5709 11.4948 18.8903 10.2757C19.4639 10.2249 19.9044 9.58693 19.9044 8.78201C19.9044 8.03816 19.5308 7.4367 19.019 7.30829" stroke="#234087" stroke-width="1.5" stroke-linecap="round" stroke-linejoin="round"/>
<path d="M9.95381 7.31628C9.45646 7.45827 9.09634 8.05126 9.09634 8.78194C9.09634 9.586 9.53436 10.2231 10.1071 10.2756C10.4282 11.4935 11.0933 12.5377 11.9922 13.2371L11.8453 14.5082C11.8218 14.7111 11.7109 14.8935 11.5416 15.0076C11.4815 15.0481 11.4154 15.0791 11.3457 15.0993L8.1441 16.0287C7.72899 16.1202 7.30536 16.3417 6.88852 16.6857C6.23196 17.228 5.78118 17.9824 5.61687 18.8106L4.86542 22.5726L9.95202 23.6263" stroke="#234087" stroke-width="1.5" stroke-linecap="round" stroke-linejoin="round"/>
<path d="M19.0191 7.30824C19.0191 7.30824 19.2846 1.98465 14.4995 1.98465C9.71434 1.98465 9.95383 7.3163 9.95383 7.3163" stroke="#234087" stroke-width="1.5" stroke-linecap="round" stroke-linejoin="round"/>
<path d="M10.2946 5.02908C10.4809 4.6472 10.8451 4.35361 11.2445 4.20843C11.8929 3.9726 12.6195 4.1611 13.2471 4.44757C14.1535 4.86128 14.9453 5.34808 15.9614 5.46002C16.9297 5.56668 17.8169 5.45926 18.6867 5.01574" stroke="#234087" stroke-width="1.5" stroke-linecap="round" stroke-linejoin="round"/>
<path d="M12.9519 7.13187H11.8142C11.4302 7.13187 11.1188 7.44319 11.1188 7.82723V8.05621C11.1188 8.44025 11.4302 8.75157 11.8142 8.75157H12.9519C13.3359 8.75157 13.6472 8.44025 13.6472 8.05621V7.82723C13.6472 7.44319 13.3359 7.13187 12.9519 7.13187Z" fill="#234087" stroke="#234087" stroke-width="1.5" stroke-linecap="round" stroke-linejoin="round"/>
<path d="M17.1847 7.13187H16.047C15.6629 7.13187 15.3516 7.44319 15.3516 7.82723V8.05621C15.3516 8.44025 15.6629 8.75157 16.047 8.75157H17.1847C17.5687 8.75157 17.88 8.44025 17.88 8.05621V7.82723C17.88 7.44319 17.5687 7.13187 17.1847 7.13187Z" fill="#234087" stroke="#234087" stroke-width="1.5" stroke-linecap="round" stroke-linejoin="round"/>
<path d="M13.6472 7.72763H15.3516" stroke="#234087" stroke-width="1.5" stroke-linecap="round" stroke-linejoin="round"/>
<path d="M9.95184 7.13187L11.1189 7.65317" stroke="#234087" stroke-width="1.5" stroke-linecap="round" stroke-linejoin="round"/>
<path d="M17.8801 7.65317L19.0215 7.13187" stroke="#234087" stroke-width="1.5" stroke-linecap="round" stroke-linejoin="round"/>
<path d="M17.1203 14.2107L14.5 16.557L11.8798 14.2107" stroke="#234087" stroke-width="1.5" stroke-linecap="round" stroke-linejoin="round"/>
<path d="M18.6858 20.5177L21.651 19.9595" stroke="#234087" stroke-width="1.5" stroke-linecap="round" stroke-linejoin="round"/>
</svg>
