<svg width="30" height="30" viewBox="0 0 30 30" fill="none" xmlns="http://www.w3.org/2000/svg">
<path d="M12.9309 9.64975H6.47192V12.8575H12.9309V9.64975Z" fill="#234087"/>
<path d="M6.47192 14.3314H12.9309" stroke="#234087" stroke-linecap="round" stroke-linejoin="round"/>
<path d="M6.47192 16.022H12.9309" stroke="#234087" stroke-linecap="round" stroke-linejoin="round"/>
<path d="M6.47192 17.7126H12.9309" stroke="#234087" stroke-linecap="round" stroke-linejoin="round"/>
<path d="M2.05017 21.6908H27.9498C27.9498 22.7953 27.053 23.6921 25.9485 23.6921H4.05147C2.94693 23.6921 2.05017 22.7953 2.05017 21.6908Z" stroke="#234087" stroke-linecap="round" stroke-linejoin="round"/>
<path d="M6.32937 6.30792H23.6705C25.101 6.30792 26.2623 7.46928 26.2623 8.89974V21.6908H3.73755V8.89974C3.73755 7.46928 4.89891 6.30792 6.32937 6.30792Z" stroke="#234087" stroke-linecap="round" stroke-linejoin="round"/>
<path d="M21.2754 13.5781C21.2392 13.4056 21.1261 13.2755 20.9858 13.2449L20.3295 13.102C20.3295 13.102 19.9693 13.4453 19.5489 13.5022C19.1284 13.4453 18.7683 13.102 18.7683 13.102L18.1119 13.2449C17.9716 13.2755 17.8585 13.4056 17.8224 13.5781L17.6793 14.2603H21.4185L21.2754 13.5781Z" fill="#234087"/>
<path d="M19.5488 12.9676C20.0065 12.9676 20.3776 12.5656 20.3776 12.0697C20.3776 11.5739 20.0065 11.1719 19.5488 11.1719C19.0911 11.1719 18.72 11.5739 18.72 12.0697C18.72 12.5656 19.0911 12.9676 19.5488 12.9676Z" fill="#234087"/>
<path d="M22.0692 9.50623H17.0286V14.5468H22.0692V9.50623Z" stroke="#234087" stroke-linecap="round" stroke-linejoin="round"/>
</svg>
