<svg width="26" height="26" viewBox="0 0 26 26" fill="none" xmlns="http://www.w3.org/2000/svg">
<g clip-path="url(#clip0_492_86)">
<path d="M16.3399 8.72197H13.8135C14.2573 9.07343 14.5788 9.5782 14.671 10.2824H16.3399V11.0476H14.686C14.5327 12.6093 13.2939 13.6038 11.3346 13.6662C12.5273 14.905 13.8285 16.4667 15.1147 18.0433H13.6453C12.4514 16.605 11.3347 15.2727 9.89514 13.7422V12.7937H10.737C12.3903 12.7937 13.2777 12.1045 13.3849 11.0476H9.89514V10.2824H13.3387C13.1244 9.395 12.3142 8.95129 10.9819 8.95129H9.89514V7.95673H16.3399L16.3399 8.72197Z" fill="#234087"/>
<path d="M22.6835 16.9624C24.8719 11.6792 22.3631 5.62234 17.0799 3.43398C11.7967 1.24562 5.73985 3.75446 3.55149 9.03762C1.36313 14.3208 3.87196 20.3777 9.15513 22.566C14.4383 24.7544 20.4952 22.2455 22.6835 16.9624Z" stroke="#234087" stroke-miterlimit="10"/>
<path d="M20.5179 16.0653C22.2108 11.9782 20.27 7.29258 16.1829 5.59965C12.0958 3.90672 7.41011 5.84757 5.71718 9.93467C4.02425 14.0218 5.9651 18.7074 10.0522 20.4003C14.1393 22.0933 18.8249 20.1524 20.5179 16.0653Z" stroke="#234087" stroke-miterlimit="10"/>
<path d="M13.167 3.79142C13.167 3.744 13.1286 3.70552 13.0811 3.70552C13.0336 3.70552 12.9952 3.74395 12.9952 3.79142C12.9952 3.8389 13.0336 3.87733 13.0811 3.87733C13.1286 3.87733 13.167 3.83885 13.167 3.79142Z" stroke="#234087" stroke-width="2" stroke-miterlimit="10"/>
<path d="M10.0145 4.32984C9.99829 4.28522 9.94899 4.26224 9.90443 4.27851C9.85986 4.29474 9.83688 4.34403 9.8531 4.3886C9.86933 4.43316 9.91862 4.45615 9.96319 4.43992C10.0078 4.4237 10.0308 4.3744 10.0145 4.32984Z" stroke="#234087" stroke-width="2" stroke-miterlimit="10"/>
<path d="M7.23622 5.91401C7.20575 5.87767 7.15156 5.87293 7.11522 5.90341C7.07887 5.93393 7.07414 5.98811 7.10466 6.02446C7.13513 6.06081 7.18932 6.06554 7.22566 6.03502C7.26201 6.00449 7.26674 5.95036 7.23622 5.91401Z" stroke="#234087" stroke-width="2" stroke-miterlimit="10"/>
<path d="M5.16739 8.35287C5.12631 8.32916 5.07374 8.34325 5.05003 8.38433C5.02631 8.42541 5.04041 8.47793 5.08149 8.50164C5.12257 8.52535 5.17514 8.51126 5.19885 8.47018C5.22256 8.4291 5.20847 8.37658 5.16739 8.35287Z" stroke="#234087" stroke-width="2" stroke-miterlimit="10"/>
<path d="M4.05746 11.3522C4.01071 11.344 3.9662 11.3752 3.95793 11.4219C3.94966 11.4686 3.98091 11.5132 4.02761 11.5214C4.07431 11.5296 4.11887 11.4984 4.12714 11.4518C4.13535 11.4051 4.10415 11.3605 4.05746 11.3522Z" stroke="#234087" stroke-width="2" stroke-miterlimit="10"/>
<path d="M4.04024 14.5503C3.99355 14.5585 3.9623 14.6031 3.97056 14.6499C3.97878 14.6966 4.02334 14.7278 4.07009 14.7195C4.11679 14.7113 4.14799 14.6668 4.13977 14.62C4.1315 14.5733 4.08699 14.5421 4.04024 14.5503Z" stroke="#234087" stroke-width="2" stroke-miterlimit="10"/>
<path d="M5.11792 17.5614C5.07684 17.5851 5.06275 17.6377 5.08646 17.6788C5.11018 17.7198 5.16275 17.7339 5.20383 17.7102C5.24491 17.6865 5.259 17.634 5.23529 17.5929C5.21158 17.5518 5.159 17.5377 5.11792 17.5614Z" stroke="#234087" stroke-width="2" stroke-miterlimit="10"/>
<path d="M7.1604 20.0223C7.12993 20.0587 7.13466 20.1129 7.17101 20.1433C7.20736 20.1739 7.26154 20.1691 7.29201 20.1328C7.32249 20.0964 7.31775 20.0423 7.28141 20.0118C7.24506 19.9813 7.19088 19.986 7.1604 20.0223Z" stroke="#234087" stroke-width="2" stroke-miterlimit="10"/>
<path d="M9.92146 21.6363C9.90524 21.6808 9.92822 21.7301 9.97279 21.7464C10.0174 21.7626 10.0666 21.7396 10.0829 21.695C10.0991 21.6505 10.0761 21.6012 10.0315 21.5849C9.98698 21.5687 9.93769 21.5917 9.92146 21.6363Z" stroke="#234087" stroke-width="2" stroke-miterlimit="10"/>
<path d="M13.068 22.2086C13.068 22.256 13.1065 22.2945 13.1539 22.2945C13.2013 22.2945 13.2398 22.2561 13.2398 22.2086C13.2398 22.1611 13.2013 22.1227 13.1539 22.1227C13.1065 22.1227 13.068 22.1612 13.068 22.2086Z" stroke="#234087" stroke-width="2" stroke-miterlimit="10"/>
<path d="M16.2205 21.6702C16.2367 21.7147 16.286 21.7377 16.3306 21.7215C16.3751 21.7053 16.3982 21.656 16.3819 21.6114C16.3657 21.5668 16.3164 21.5439 16.2718 21.5601C16.2273 21.5763 16.2042 21.6256 16.2205 21.6702Z" stroke="#234087" stroke-width="2" stroke-miterlimit="10"/>
<path d="M18.9988 20.086C19.0293 20.1223 19.0834 20.1271 19.1198 20.0966C19.1561 20.0661 19.1608 20.0119 19.1304 19.9756C19.0999 19.9393 19.0457 19.9345 19.0093 19.965C18.973 19.9955 18.9682 20.0497 18.9988 20.086Z" stroke="#234087" stroke-width="2" stroke-miterlimit="10"/>
<path d="M21.0676 17.6471C21.1087 17.6709 21.1612 17.6568 21.1849 17.6157C21.2086 17.5746 21.1946 17.5221 21.1535 17.4984C21.1124 17.4747 21.0598 17.4887 21.0361 17.5298C21.0124 17.5709 21.0265 17.6234 21.0676 17.6471Z" stroke="#234087" stroke-width="2" stroke-miterlimit="10"/>
<path d="M22.1776 14.6478C22.2243 14.656 22.2688 14.6248 22.2771 14.5781C22.2853 14.5314 22.2541 14.4868 22.2074 14.4786C22.1607 14.4704 22.1162 14.5016 22.1079 14.5483C22.0996 14.595 22.1309 14.6395 22.1776 14.6478Z" stroke="#234087" stroke-width="2" stroke-miterlimit="10"/>
<path d="M22.1948 11.4497C22.2415 11.4415 22.2727 11.3969 22.2645 11.3501C22.2562 11.3034 22.2117 11.2722 22.1649 11.2805C22.1182 11.2887 22.087 11.3332 22.0953 11.38C22.1035 11.4267 22.148 11.4579 22.1948 11.4497Z" stroke="#234087" stroke-width="2" stroke-miterlimit="10"/>
<path d="M21.1171 8.43857C21.1582 8.41485 21.1723 8.36228 21.1486 8.3212C21.1248 8.28012 21.0723 8.26603 21.0312 8.28974C20.9901 8.31345 20.976 8.36597 20.9997 8.40705C21.0234 8.44813 21.076 8.46228 21.1171 8.43857Z" stroke="#234087" stroke-width="2" stroke-miterlimit="10"/>
<path d="M19.0745 5.97766C19.1051 5.94131 19.1003 5.88713 19.064 5.85666C19.0276 5.82613 18.9734 5.83087 18.943 5.86721C18.9125 5.90356 18.9172 5.95775 18.9535 5.98822C18.9899 6.01874 19.0441 6.01401 19.0745 5.97766Z" stroke="#234087" stroke-width="2" stroke-miterlimit="10"/>
<path d="M16.3135 4.36368C16.3297 4.31912 16.3068 4.26983 16.2622 4.2536C16.2176 4.23738 16.1683 4.26036 16.1521 4.30492C16.1358 4.34949 16.1588 4.39879 16.2034 4.41501C16.2479 4.43123 16.2972 4.40825 16.3135 4.36368Z" stroke="#234087" stroke-width="2" stroke-miterlimit="10"/>
</g>
<defs>
<clipPath id="clip0_492_86">
<rect width="26" height="26" fill="white"/>
</clipPath>
</defs>
</svg>
