<svg width="25" height="25" viewBox="0 0 25 25" fill="none" xmlns="http://www.w3.org/2000/svg">
<g clip-path="url(#clip0_651_28)">
<path d="M12.4798 23.7133C18.6839 23.7133 23.7133 18.6839 23.7133 12.4797C23.7133 6.27562 18.6839 1.24619 12.4798 1.24619C6.27565 1.24619 1.24622 6.27562 1.24622 12.4797C1.24622 18.6839 6.27565 23.7133 12.4798 23.7133Z" stroke="#234087" stroke-miterlimit="10" stroke-linecap="round"/>
<path d="M5.46875 16.5V8.5H6.4375V12.0625H10.7031V8.5H11.6719V16.5H10.7031V12.9219H6.4375V16.5H5.46875ZM13.6113 16.5V8.5H16.3145C16.9395 8.5 17.4525 8.60677 17.8535 8.82031C18.2546 9.03125 18.5514 9.32161 18.7441 9.69141C18.9368 10.0612 19.0332 10.4818 19.0332 10.9531C19.0332 11.4245 18.9368 11.8424 18.7441 12.207C18.5514 12.5716 18.2559 12.8581 17.8574 13.0664C17.459 13.2721 16.9499 13.375 16.3301 13.375H14.1426V12.5H16.2988C16.7259 12.5 17.0697 12.4375 17.3301 12.3125C17.5931 12.1875 17.7832 12.0104 17.9004 11.7812C18.0202 11.5495 18.0801 11.2734 18.0801 10.9531C18.0801 10.6328 18.0202 10.3529 17.9004 10.1133C17.7806 9.8737 17.5892 9.6888 17.3262 9.55859C17.0632 9.42578 16.7155 9.35937 16.2832 9.35937H14.5801V16.5H13.6113ZM17.377 12.9062L19.3457 16.5H18.2207L16.2832 12.9062H17.377Z" fill="#234087"/>
</g>
<defs>
<clipPath id="clip0_651_28">
<rect width="25" height="25" fill="white"/>
</clipPath>
</defs>
</svg>
