<svg width="26" height="26" viewBox="0 0 26 26" fill="none" xmlns="http://www.w3.org/2000/svg">
<path d="M17.2702 13.8297C16.9456 13.5041 16.5194 13.3421 16.0934 13.3421H5.8844C5.45826 13.3421 5.03217 13.5042 4.70733 13.8297C4.38228 14.1543 4.21973 14.5799 4.21973 15.006C4.21973 15.4322 4.38228 15.8588 4.70733 16.1833C5.03217 16.5084 5.45826 16.6709 5.8844 16.6709V23.3282C5.8844 23.4697 5.93843 23.6123 6.04643 23.7203C6.15496 23.8288 6.29676 23.8828 6.43877 23.8828H15.5389C15.6805 23.8828 15.8225 23.8288 15.9311 23.7203C16.0391 23.6123 16.0934 23.4697 16.0934 23.3282V16.6709C16.5194 16.6709 16.9456 16.5084 17.2702 16.1833C17.5955 15.8587 17.758 15.4321 17.758 15.006C17.758 14.58 17.5955 14.1543 17.2702 13.8297Z" fill="#F9C963"/>
<path d="M24.4031 13.8297C24.0782 13.5041 23.6524 13.3421 23.2262 13.3421H13.0173C12.5912 13.3421 12.1651 13.5042 11.84 13.8297C11.5151 14.1543 11.3524 14.5799 11.3524 15.006C11.3524 15.4322 11.5152 15.8588 11.84 16.1833C12.165 16.5084 12.5912 16.6709 13.0173 16.6709V23.3282C13.0173 23.4697 13.0713 23.6123 13.1796 23.7203C13.2878 23.8288 13.4297 23.8828 13.5714 23.8828H22.6716C22.8131 23.8828 22.9556 23.8288 23.0639 23.7203C23.172 23.6123 23.2262 23.4697 23.2262 23.3282V16.6709C23.6523 16.6709 24.0782 16.5084 24.403 16.1833C24.7286 15.8587 24.8904 15.4321 24.8904 15.006C24.8904 14.58 24.7286 14.1543 24.4031 13.8297Z" fill="#234087"/>
<path d="M14.1266 22.7736V15.5612H13.0173C12.931 15.5612 12.7662 15.5402 12.6247 15.3987C12.4834 15.2576 12.4624 15.0921 12.4624 15.0061C12.4624 14.9205 12.4834 14.755 12.6244 14.6139C12.7662 14.4729 12.931 14.4519 13.0173 14.4519H23.2262C23.312 14.4519 23.4773 14.4729 23.6184 14.6139C23.7602 14.7549 23.7809 14.9205 23.7809 15.0061C23.7809 15.0921 23.7602 15.2576 23.6184 15.3987C23.4774 15.5402 23.312 15.5612 23.2262 15.5612H22.1167V22.7736H14.1266Z" fill="#FABF8E"/>
<path d="M16.3272 17.1606C16.3272 17.2526 16.2526 17.3271 16.1606 17.3271C16.0688 17.3271 15.9946 17.2526 15.9946 17.1606C15.9946 17.069 16.0689 16.994 16.1606 16.994C16.2526 16.994 16.3272 17.069 16.3272 17.1606Z" fill="#F6882D"/>
<path d="M19.5763 21.8488C19.5763 21.9404 19.5017 22.0149 19.41 22.0149C19.3182 22.0149 19.2434 21.9404 19.2434 21.8488C19.2434 21.7563 19.3182 21.6823 19.41 21.6823C19.5017 21.6823 19.5763 21.7563 19.5763 21.8488Z" fill="#F6882D"/>
<path d="M20.3842 17.5542C20.3842 17.6457 20.31 17.7202 20.2177 17.7202C20.1262 17.7202 20.0514 17.6457 20.0514 17.5542C20.0514 17.4616 20.1262 17.3871 20.2177 17.3871C20.31 17.3871 20.3842 17.4616 20.3842 17.5542Z" fill="#F6882D"/>
<path d="M17.5545 15.5427C17.5545 15.7878 17.3554 15.9863 17.1111 15.9863C16.8658 15.9863 16.6672 15.7878 16.6672 15.5427C16.6672 15.2976 16.8658 15.0986 17.1111 15.0986C17.3554 15.0986 17.5545 15.2976 17.5545 15.5427Z" fill="#F6882D"/>
<path d="M15.604 18.4704C15.604 18.6845 15.4297 18.8581 15.2151 18.8581C15.001 18.8581 14.827 18.6845 14.827 18.4704C14.827 18.2554 15.0011 18.0813 15.2151 18.0813C15.4297 18.0813 15.604 18.2554 15.604 18.4704Z" fill="#F6882D"/>
<path d="M20.0756 18.7605C20.0756 19.0361 19.8521 19.2596 19.5762 19.2596C19.3007 19.2596 19.0771 19.0361 19.0771 18.7605C19.0771 18.4844 19.3006 18.2609 19.5762 18.2609C19.8521 18.2609 20.0756 18.4844 20.0756 18.7605Z" fill="#F6882D"/>
<path d="M21.3885 18.9271C21.3885 19.0186 21.314 19.0931 21.2219 19.0931C21.1302 19.0931 21.0559 19.0186 21.0559 18.9271C21.0559 18.835 21.1302 18.7605 21.2219 18.7605C21.314 18.7605 21.3885 18.835 21.3885 18.9271Z" fill="#F6882D"/>
<path d="M20.0751 16.4809C20.0751 16.5424 20.0256 16.5919 19.9644 16.5919C19.9039 16.5919 19.8536 16.5424 19.8536 16.4809C19.8536 16.4199 19.9039 16.3704 19.9644 16.3704C20.0256 16.3704 20.0751 16.4199 20.0751 16.4809Z" fill="#F6882D"/>
<path d="M15.828 16.6154C15.828 16.6764 15.7777 16.726 15.7167 16.726C15.6557 16.726 15.6059 16.6765 15.6059 16.6154C15.6059 16.5539 15.6557 16.5044 15.7167 16.5044C15.7778 16.5044 15.828 16.5539 15.828 16.6154Z" fill="#F6882D"/>
<path d="M18.8866 16.1988C18.8866 16.2603 18.8368 16.3098 18.7756 16.3098C18.7143 16.3098 18.6646 16.2603 18.6646 16.1988C18.6646 16.1378 18.7143 16.0883 18.7756 16.0883C18.8368 16.0883 18.8866 16.1378 18.8866 16.1988Z" fill="#F6882D"/>
<path d="M21.5575 21.8383C21.5575 21.8998 21.5077 21.9493 21.4465 21.9493C21.3852 21.9493 21.3354 21.8998 21.3354 21.8383C21.3354 21.7773 21.3852 21.7278 21.4465 21.7278C21.5077 21.7278 21.5575 21.7773 21.5575 21.8383Z" fill="#F6882D"/>
<path d="M15.082 22.1029C15.082 22.1734 15.0241 22.2305 14.954 22.2305C14.8832 22.2305 14.826 22.1734 14.826 22.1029C14.826 22.0319 14.8833 21.9743 14.954 21.9743C15.0241 21.9743 15.082 22.0319 15.082 22.1029Z" fill="#F6882D"/>
<path d="M21.9674 15.0105C21.9674 15.072 21.9176 15.1221 21.8566 15.1221C21.7954 15.1221 21.7456 15.072 21.7456 15.0105C21.7456 14.9495 21.7954 14.9 21.8566 14.9C21.9176 14.9 21.9674 14.9495 21.9674 15.0105Z" fill="#F6882D"/>
<path d="M21.5783 16.1758C21.5783 16.3509 21.4368 16.4925 21.262 16.4925C21.0869 16.4925 20.9454 16.3509 20.9454 16.1758C20.9454 16.0013 21.0869 15.8593 21.262 15.8593C21.4368 15.8593 21.5783 16.0013 21.5783 16.1758Z" fill="#F6882D"/>
<path d="M20.3132 15.3436C20.3132 15.4661 20.2137 15.5656 20.0912 15.5656C19.9689 15.5656 19.8694 15.4661 19.8694 15.3436C19.8694 15.2211 19.9689 15.122 20.0912 15.122C20.2137 15.122 20.3132 15.221 20.3132 15.3436Z" fill="#F6882D"/>
<path d="M16.5729 21.3572C16.5729 21.5712 16.3986 21.7452 16.1841 21.7452C15.97 21.7452 15.796 21.5712 15.796 21.3572C15.796 21.1426 15.97 20.9686 16.1841 20.9686C16.3986 20.9686 16.5729 21.1426 16.5729 21.3572Z" fill="#F6882D"/>
<path d="M16.6602 19.7587C16.6602 19.9118 16.5362 20.0363 16.3822 20.0363C16.2294 20.0363 16.1053 19.9118 16.1053 19.7587C16.1053 19.6057 16.2294 19.4812 16.3822 19.4812C16.5363 19.4812 16.6602 19.6057 16.6602 19.7587Z" fill="#F6882D"/>
<path d="M21.1409 20.9506C21.1409 21.1632 20.9691 21.3347 20.7563 21.3347C20.5448 21.3347 20.3727 21.1632 20.3727 20.9506C20.3727 20.7385 20.5448 20.566 20.7563 20.566C20.9692 20.566 21.1409 20.7385 21.1409 20.9506Z" fill="#F6882D"/>
<path d="M18.9348 20.767C18.9348 20.9201 18.8106 21.0441 18.6568 21.0441C18.5043 21.0441 18.38 20.9201 18.38 20.767C18.38 20.6135 18.5043 20.4894 18.6568 20.4894C18.8106 20.4894 18.9348 20.6135 18.9348 20.767Z" fill="#F6882D"/>
<path d="M15.3839 15.2836C15.3839 15.4677 15.2351 15.6167 15.0511 15.6167C14.8675 15.6167 14.7182 15.4677 14.7182 15.2836C14.7182 15.0995 14.8675 14.951 15.0511 14.951C15.2351 14.951 15.3839 15.0996 15.3839 15.2836Z" fill="#F6882D"/>
<path d="M13.7092 8.34626C13.4312 8.06816 13.0663 7.92917 12.7022 7.92917C12.3376 7.92917 11.973 7.79012 11.6951 7.51208C11.4166 7.23398 11.2773 6.86941 11.2773 6.50432V3.94061H6.4913V6.50426C6.4913 6.86936 6.35251 7.23398 6.07421 7.51202C5.79616 7.79007 5.43154 7.92912 5.06692 7.92912C4.7026 7.92912 4.33746 8.06811 4.05988 8.34621C3.78158 8.62425 3.64227 8.98888 3.64227 9.3535V22.4584C3.64227 22.823 3.78158 23.1876 4.05988 23.4657C4.33746 23.7438 4.70255 23.8828 5.06692 23.8828H12.7022C13.0663 23.8828 13.4311 23.7438 13.7092 23.4657C13.9873 23.1877 14.1266 22.8231 14.1266 22.4584V9.35355C14.1266 8.98893 13.9873 8.62436 13.7092 8.34626Z" fill="#234087"/>
<path d="M14.1266 13.3421H3.64233V18.4699H14.1266V13.3421Z" fill="#F58020"/>
<path d="M12.1896 14.5764H5.57959V15.1081H12.1896V14.5764Z" fill="white"/>
<path d="M12.1896 15.6402H5.57959V16.1718H12.1896V15.6402Z" fill="white"/>
<path d="M8.88471 16.704H5.57959V17.2356H8.88471V16.704Z" fill="white"/>
<path d="M12.1896 3.02884C12.1896 2.79526 12.1 2.56271 11.922 2.3842C11.7445 2.20662 11.5109 2.11713 11.2773 2.11713H6.4913C6.25849 2.11713 6.02517 2.20667 5.84686 2.3842C5.66855 2.56271 5.57953 2.79531 5.57953 3.02884C5.57953 3.26243 5.66855 3.49549 5.84686 3.67354C6.02517 3.85159 6.25844 3.94061 6.4913 3.94061H11.2773C11.5109 3.94061 11.7445 3.85159 11.922 3.67354C12.1001 3.49549 12.1896 3.26243 12.1896 3.02884Z" fill="#F58020"/>
<path d="M20.9704 10.4928C20.9704 12.0662 19.695 13.342 18.1219 13.342C16.5487 13.342 15.2729 12.0662 15.2729 10.4928C15.2729 8.91939 16.5484 7.64404 18.1219 7.64404C19.6953 7.64404 20.9704 8.91939 20.9704 10.4928Z" fill="#F58020"/>
<path d="M15.8426 10.7209C15.7168 10.7209 15.6147 10.6189 15.6147 10.4928C15.6147 9.82416 15.8756 9.19449 16.3492 8.72035C16.4382 8.63133 16.5825 8.63185 16.6715 8.72035C16.7606 8.80938 16.7606 8.95342 16.6718 9.04244C16.2839 9.43052 16.0704 9.94568 16.0704 10.4928C16.0704 10.6189 15.9683 10.7209 15.8426 10.7209Z" fill="white"/>
<path d="M18.1219 8.44178C17.9961 8.44178 17.894 8.33976 17.894 8.21371C17.894 7.78461 17.5444 7.43501 17.1151 7.43501C16.9893 7.43501 16.8873 7.33299 16.8873 7.20694C16.8873 7.08141 16.9893 6.97939 17.1151 6.97939C17.7958 6.97939 18.3497 7.53303 18.3497 8.21371C18.3497 8.33976 18.2476 8.44178 18.1219 8.44178Z" fill="#234087"/>
</svg>
