<svg width="24" height="24" viewBox="0 0 24 24" fill="none" xmlns="http://www.w3.org/2000/svg">
<path d="M10.0833 11.2348C9.87983 10.5339 9.57935 9.98232 9.20764 9.5518C8.79464 9.07564 8.29362 8.75011 7.74008 8.54016C7.2022 8.99112 6.511 9.26299 5.7562 9.26299C5.0014 9.26299 4.30948 8.9904 3.77197 8.53963C3.31914 8.71142 2.90178 8.96011 2.53919 9.30595C2.06231 9.7618 1.67888 10.3839 1.43423 11.2193C1.24213 11.8759 1.19615 12.6219 1.19615 12.6219C1.16221 13.1636 1.5788 13.6067 2.12144 13.6067H9.39085C9.93349 13.6067 10.3505 13.1636 10.3172 12.6219C10.3172 12.6219 10.2724 11.8886 10.0833 11.2348Z" stroke="#234287" stroke-miterlimit="10"/>
<path d="M5.75621 9.24235C7.24527 9.24235 8.45285 8.03573 8.45285 6.54648C8.45285 5.05723 7.24531 3.84984 5.75621 3.84984C4.26639 3.84984 3.05957 5.05665 3.05957 6.54648C3.05957 8.0363 4.26639 9.24235 5.75621 9.24235Z" stroke="#234287" stroke-miterlimit="10"/>
<path d="M22.4984 17.0596C22.2333 16.1463 21.8418 15.4277 21.3574 14.8668C20.8193 14.2463 20.1665 13.8221 19.4452 13.5486C18.7444 14.1362 17.8437 14.4904 16.8602 14.4904C15.8767 14.4904 14.9752 14.1352 14.2748 13.5478C13.6848 13.7717 13.1409 14.0957 12.6685 14.5463C12.0471 15.1403 11.5475 15.9508 11.2288 17.0394C10.9785 17.8949 10.9185 18.8669 10.9185 18.8669C10.8743 19.5728 11.4172 20.1502 12.1242 20.1502H21.5962C22.3033 20.1502 22.8466 19.5728 22.8033 18.8669C22.8033 18.8669 22.7448 17.9115 22.4984 17.0596Z" stroke="#234287" stroke-miterlimit="10"/>
<path d="M16.8603 14.4635C18.8005 14.4635 20.3739 12.8913 20.3739 10.9508C20.3739 9.01027 18.8005 7.43707 16.8603 7.43707C14.919 7.43707 13.3466 9.00955 13.3466 10.9508C13.3466 12.892 14.919 14.4635 16.8603 14.4635Z" stroke="#234287" stroke-miterlimit="10"/>
<path d="M1.74823 14.5414V17.9067H5.58185" stroke="#234287" stroke-miterlimit="10"/>
<path d="M8.47867 17.9067C7.11556 18.4125 5.42428 19.2755 4.37592 20.1895L5.20161 17.9067L4.37592 15.6243C5.42428 16.5384 7.11556 17.4014 8.47867 17.9067Z" fill="#234287"/>
</svg>
