<svg width="25" height="25" viewBox="0 0 25 25" fill="none" xmlns="http://www.w3.org/2000/svg">
<path d="M23.2357 7.49716C23.1127 7.35346 22.9331 7.27156 22.7441 7.27261L8.32476 7.35611L8.12846 5.39966C8.10121 4.35516 7.23986 3.51641 6.19016 3.52296L2.24851 3.54491C1.89356 3.54761 1.60746 3.83641 1.60951 4.19191C1.61181 4.54581 1.90101 4.83216 2.25611 4.83026L6.19726 4.80746C6.55166 4.80556 6.84156 5.09246 6.84356 5.44661C6.84426 5.50191 7.03786 7.34421 7.94826 15.2034C7.23361 15.4884 6.72926 16.1899 6.73386 17.0048C6.74011 18.0675 7.60986 18.9273 8.67296 18.9208L9.42586 18.9167C9.35591 19.1185 9.31781 19.3352 9.31916 19.5605C9.32541 20.6232 10.1952 21.4836 11.2583 21.4771C12.3213 21.4711 13.181 20.601 13.1752 19.5382C13.1735 19.3123 13.1331 19.0965 13.061 18.8958L17.1376 18.8725C17.0676 19.0743 17.0295 19.2904 17.0309 19.5163C17.037 20.579 17.9067 21.4394 18.9698 21.4329C20.0329 21.4263 20.8927 20.5567 20.8864 19.4935C20.8806 18.4313 20.0104 17.5709 18.9477 17.5774L8.66536 17.636C8.31136 17.6387 8.02106 17.3515 8.01921 16.9969C8.01731 16.643 8.30396 16.3534 8.65836 16.3512L20.4218 16.2837C21.3684 16.2777 22.1643 15.5957 22.3142 14.6618L23.3826 8.01716C23.4124 7.83116 23.3587 7.64116 23.2357 7.49716ZM18.9548 18.8622C19.3091 18.8601 19.5991 19.1472 19.6014 19.5011C19.6033 19.8552 19.3167 20.1454 18.9623 20.1481C18.6079 20.1494 18.318 19.8631 18.3161 19.5089C18.3141 19.1529 18.6008 18.8647 18.9548 18.8622ZM11.2431 18.9064C11.5975 18.9037 11.8874 19.1914 11.8897 19.5456C11.8916 19.8994 11.605 20.1899 11.2506 20.1923C10.8963 20.1937 10.6063 19.9073 10.6044 19.5532C10.6025 19.1985 10.8891 18.9084 11.2431 18.9064Z" stroke="#234287" stroke-miterlimit="10"/>
</svg>
