<svg width="24" height="26" viewBox="0 0 24 26" fill="none" xmlns="http://www.w3.org/2000/svg">
<path d="M1.37937 8.83105e-05C1.02632 8.83105e-05 0.673272 0.227405 0.404132 0.681947C0.134728 1.13649 0 1.73171 0 2.32738V20.9449C0 21.5405 0.134728 22.1357 0.404132 22.5903C0.673325 23.0448 1.02632 23.2721 1.37937 23.2721H10.6209C10.6209 24.5576 11.2384 25.5994 12 25.5994C12.7616 25.5994 13.3791 24.5576 13.3791 23.2721H22.6209C22.9737 23.2721 23.3267 23.0448 23.5961 22.5903C23.8655 22.1357 24 21.5405 24 20.9449V2.32729C24 1.73162 23.8655 1.1364 23.5961 0.681858C23.3267 0.227315 22.9737 0 22.6209 0L1.37937 8.83105e-05Z" fill="#234087"/>
<path d="M10.5876 0H1.375V20.9401H10.5876C11.347 20.9401 11.9623 21.8776 11.9623 23.0342V2.0941C11.9623 0.938252 11.3465 0 10.5876 0Z" fill="white"/>
<path d="M13.3372 0H22.55V20.9401H13.3372C12.5777 20.9401 11.9624 21.8776 11.9624 23.0342V2.0941C11.9624 0.938252 12.5785 0 13.3372 0Z" fill="white"/>
<path d="M10.5876 0V20.9401C11.3471 20.9401 11.9624 21.8776 11.9624 23.0342V2.0941C11.9624 0.938252 11.3465 0 10.5876 0Z" fill="#E6E5E5"/>
<path d="M9.21232 8.00665H2.75006V8.99209H9.21232V8.00665Z" fill="#D9D8D7"/>
<path d="M9.21232 9.97751H2.75006V10.9629H9.21232V9.97751Z" fill="#D9D8D7"/>
<path d="M9.21232 11.9483H2.75006V12.9333H9.21232V11.9483Z" fill="#D9D8D7"/>
<path d="M9.21232 13.9192H2.75006V14.9042H9.21232V13.9192Z" fill="#D9D8D7"/>
<path d="M9.21232 15.8901H2.75006V16.8751H9.21232V15.8901Z" fill="#D9D8D7"/>
<path d="M9.21232 17.8608H2.75006V18.8459H9.21232V17.8608Z" fill="#D9D8D7"/>
<path d="M21.1747 2.09409H14.7125V3.07953H21.1747V2.09409Z" fill="#D9D8D7"/>
<path d="M21.1747 4.06482H14.7125V5.05026H21.1747V4.06482Z" fill="#D9D8D7"/>
<path d="M21.1747 6.03574H14.7125V7.02078H21.1747V6.03574Z" fill="#D9D8D7"/>
<path d="M21.1747 8.00662H14.7125V8.99206H21.1747V8.00662Z" fill="#D9D8D7"/>
<path d="M21.1747 9.97748H14.7125V10.9629H21.1747V9.97748Z" fill="#D9D8D7"/>
<path d="M21.1747 11.9483H14.7125V12.9333H21.1747V11.9483Z" fill="#D9D8D7"/>
<path d="M21.1747 13.9192H14.7125V14.9042H21.1747V13.9192Z" fill="#D9D8D7"/>
<path d="M21.1747 15.89H14.7125V16.8751H21.1747V15.89Z" fill="#D9D8D7"/>
<path d="M21.1747 17.8609H14.7125V18.8459H21.1747V17.8609Z" fill="#D9D8D7"/>
<path d="M9.21232 2.09409H2.75006V7.02089H9.21232V2.09409Z" fill="#F58020"/>
<path d="M13.4183 0V19.8318L14.0654 18.846L14.7125 19.8318V0H13.4183Z" fill="#F58020"/>
</svg>
