<svg width="26" height="26" viewBox="0 0 26 26" fill="none" xmlns="http://www.w3.org/2000/svg">
<path d="M18.7835 23.1041L13.613 19.4341C13.3055 19.2158 12.8927 19.2196 12.5892 19.4434L7.46646 23.2211C6.80309 23.7102 5.89366 23.0927 6.10369 22.2957L7.70945 16.2022C7.79983 15.8592 7.67378 15.4956 7.39048 15.2822L2.5535 11.6382C1.89658 11.1433 2.22553 10.0976 3.04744 10.0679L9.06504 9.85062C9.41906 9.83783 9.73033 9.61241 9.85289 9.28002L12.1038 3.17626C12.3818 2.42231 13.4446 2.41238 13.7367 3.16103L16.0962 9.20868C16.225 9.53898 16.5409 9.75863 16.8954 9.76445L22.9354 9.86372C23.7576 9.87724 24.1071 10.9162 23.4602 11.4239L18.7116 15.1507C18.433 15.3693 18.314 15.7345 18.4104 16.0753L20.1295 22.1543C20.3538 22.9473 19.4555 23.5811 18.7835 23.1041Z" fill="#234087"/>
</svg>
