<svg width="26" height="26" viewBox="0 0 26 26" fill="none" xmlns="http://www.w3.org/2000/svg">
<path d="M10.3091 5.43857C10.3091 5.0559 9.99885 4.74567 9.61618 4.74567C9.23351 4.74567 8.92328 5.0559 8.92328 5.43857C8.92328 5.82123 9.23346 6.13147 9.61618 6.13147C9.9989 6.13147 10.3091 5.82123 10.3091 5.43857Z" fill="#234087"/>
<path d="M2.35529 22.1688H23.0034" stroke="#234087" stroke-width="2" stroke-miterlimit="10"/>
<path d="M4.62431 12.9957H2.35529V20.2422H4.62431V12.9957Z" fill="#F58020"/>
<path d="M23.0035 9.23438H20.7344V20.2422H23.0035V9.23438Z" fill="#234087"/>
<path d="M10.7507 9.09637H8.48169V20.2422H10.7507V9.09637Z" fill="#234087"/>
<path d="M11.1027 6.05063C11.4407 5.22971 11.0492 4.29022 10.2282 3.95222C9.40732 3.61422 8.46782 4.00571 8.12982 4.82663C7.79182 5.64756 8.18331 6.58705 9.00424 6.92505C9.82516 7.26305 10.7647 6.87156 11.1027 6.05063Z" stroke="#234087" stroke-width="1.5" stroke-miterlimit="10"/>
<path d="M22.5618 5.57663C22.5618 5.19396 22.2516 4.88373 21.8689 4.88373C21.4863 4.88373 21.176 5.19396 21.176 5.57663C21.176 5.9593 21.4862 6.26953 21.8689 6.26953C22.2516 6.26953 22.5618 5.9593 22.5618 5.57663Z" fill="#234087"/>
<path d="M22.1257 7.16343C23.0021 7.02159 23.5976 6.19616 23.4557 5.31978C23.3139 4.4434 22.4885 3.84793 21.6121 3.98977C20.7357 4.1316 20.1402 4.95703 20.2821 5.83341C20.4239 6.70979 21.2493 7.30526 22.1257 7.16343Z" stroke="#234087" stroke-width="1.5" stroke-miterlimit="10"/>
<path d="M16.8771 12.5816H14.608V20.2422H16.8771V12.5816Z" fill="#F58020"/>
<path d="M15.7426 9.89007C16.2762 9.89007 16.7088 9.45748 16.7088 8.92385C16.7088 8.39023 16.2762 7.95764 15.7426 7.95764C15.209 7.95764 14.7764 8.39023 14.7764 8.92385C14.7764 9.45748 15.209 9.89007 15.7426 9.89007Z" stroke="#234087" stroke-width="1.5" stroke-miterlimit="10"/>
<path d="M4.45604 9.33792C4.45604 8.80429 4.02346 8.3717 3.48983 8.3717C2.95621 8.3717 2.52362 8.80429 2.52362 9.33792C2.52362 9.87154 2.95621 10.3041 3.48983 10.3041C4.02346 10.3041 4.45604 9.87154 4.45604 9.33792Z" stroke="#234087" stroke-width="1.5" stroke-miterlimit="10"/>
<path d="M4.21368 8.69939L8.23469 6.25763" stroke="#234087" stroke-width="1.5" stroke-miterlimit="10"/>
<path d="M11.0977 6.06323L14.7764 8.37167" stroke="#234087" stroke-width="1.5" stroke-miterlimit="10"/>
<path d="M16.593 8.46497L20.4202 6.26953" stroke="#234087" stroke-width="1.5" stroke-miterlimit="10"/>
</svg>
