<svg width="22" height="22" viewBox="0 0 22 22" fill="none" xmlns="http://www.w3.org/2000/svg">
<path d="M14.9289 5.02159L5.0235 14.9313L7.07243 16.9793L16.9779 7.06964L14.9289 5.02159Z" fill="#234087"/>
<path d="M20.2168 3.83283L18.2482 5.80003L16.2 3.75135L18.1681 1.78415C17.0878 1.44447 15.8612 1.70042 15.0056 2.55692C13.7795 3.78263 13.7795 5.76963 15.0056 6.99555C16.2308 8.2206 18.2188 8.22082 19.4449 6.99577C20.3001 6.13971 20.5556 4.91251 20.2168 3.83283Z" fill="#234087"/>
<path d="M1.78372 18.1673L3.75136 16.1995L5.79916 18.2486L3.83197 20.2158C4.9123 20.5555 6.13928 20.2995 6.99535 19.4443C8.22062 18.2182 8.22062 16.2307 6.99535 15.005C5.77012 13.7791 3.78176 13.7789 2.55649 15.0046C1.69999 15.8609 1.44404 17.0874 1.78372 18.1673Z" fill="#234087"/>
<path d="M18.0838 19.6201C17.953 19.751 17.7719 19.832 17.5719 19.832C17.3719 19.832 17.1908 19.7509 17.0599 19.6201L10.7446 13.3049L13.3049 10.7446L19.6197 17.0599C19.751 17.191 19.832 17.3718 19.832 17.5718C19.832 17.7719 19.7509 17.9529 19.6197 18.0842L18.0838 19.6201Z" fill="#F7A562"/>
<path d="M4.76422 4.16369L4.77658 3.35699L2.76882 2.16785L2.16791 2.76858L3.35701 4.77696L4.1637 4.7642L10.7275 11.3286L11.3284 10.7277L4.76422 4.16369Z" fill="#234087"/>
<path d="M18.8518 17.3159L13.5609 12.0249C13.4952 11.9593 13.4049 11.9188 13.3049 11.9188C13.2049 11.9188 13.1146 11.9593 13.0489 12.0249C12.9833 12.0904 12.9427 12.1809 12.9432 12.2809C12.9427 12.3809 12.9833 12.4713 13.0489 12.5369L18.3399 17.8279C18.4055 17.8935 18.4962 17.9338 18.5963 17.934C18.6959 17.934 18.7862 17.8935 18.8519 17.8279C18.9175 17.7624 18.9576 17.6719 18.958 17.5719C18.958 17.4719 18.917 17.3815 18.8518 17.3159Z" fill="#F58020"/>
<path d="M17.8278 18.3401L12.5369 13.0489C12.4713 12.9832 12.3809 12.9429 12.2809 12.9429C12.1809 12.9427 12.0901 12.9832 12.0249 13.0489C11.9593 13.1145 11.9188 13.2049 11.9188 13.3049C11.9188 13.4049 11.9593 13.4952 12.0249 13.5608L17.3159 18.8518C17.3815 18.9174 17.4719 18.958 17.5719 18.958C17.6719 18.958 17.7622 18.9174 17.8278 18.852C17.8935 18.7866 17.934 18.6958 17.9336 18.596C17.934 18.496 17.8934 18.4054 17.8278 18.3401Z" fill="#F58020"/>
<path d="M11.7961 10.2602L10.2599 11.796L11.2567 12.7929L12.7928 11.2571L11.7961 10.2602Z" fill="#F58020"/>
</svg>
