<svg width="25" height="25" viewBox="0 0 25 25" fill="none" xmlns="http://www.w3.org/2000/svg">
<path d="M9.60365 14.9682H9.09155V16.1968H9.60365V14.9682Z" fill="#4A5158"/>
<path d="M23.5148 16.1968H9.6037V6.3984C9.6037 6.2146 9.67385 6.0308 9.81415 5.8905C9.95445 5.7502 10.1382 5.68005 10.322 5.68005H22.7964C22.9802 5.68005 23.164 5.7502 23.3043 5.8905C23.4446 6.0308 23.5148 6.2146 23.5148 6.3984L23.5148 16.1968Z" fill="#F7AD6F"/>
<path d="M22.286 6.90866H10.8328V14.9682H22.286V6.90866Z" fill="#F58020"/>
<path d="M22.286 10.0697H16.2403V11.8067H22.286V10.0697Z" fill="white"/>
<path d="M16.2403 13.133L14.096 10.9896L16.2403 8.84485V13.133Z" fill="white"/>
<path d="M3.1698 10.9892C3.1698 10.4401 3.37955 9.89151 3.7979 9.47246C4.21695 9.05391 4.76555 8.84436 5.3141 8.84436H9.09155V13.133H3.1698V10.9892Z" fill="#FABF8E"/>
<path d="M4.39514 13.133V10.9892C4.39514 10.7432 4.49079 10.5131 4.66454 10.3396C4.83809 10.1651 5.06864 10.0697 5.31414 10.0697H7.86674V13.133H4.39514Z" fill="white"/>
<path d="M1.74127 14.3588C1.74127 14.0454 1.86122 13.7311 2.10067 13.4922C2.33967 13.2527 2.65302 13.133 2.96682 13.133H9.09157V16.1968H1.74127V14.3588Z" fill="#FABF8E"/>
<path d="M2.25317 14.3588H1.74127V15.5879H2.25317V14.3588Z" fill="#F58020"/>
<path d="M7.8667 14.3588H7.1521V14.7872H7.8667V14.3588Z" fill="white"/>
<path d="M23.5146 16.1968H1.48523V17.4254H23.5146V16.1968Z" fill="#4A494A"/>
<path d="M6.95896 17.4254C6.95896 18.472 6.11106 19.3199 5.06441 19.3199C4.01776 19.3199 3.16986 18.472 3.16986 17.4254C3.16986 16.3787 4.01821 15.5312 5.06441 15.5312C6.11061 15.5312 6.95896 16.3787 6.95896 17.4254Z" fill="#4A494A"/>
<path d="M5.90663 17.4254C5.90663 17.8907 5.52968 18.2672 5.06438 18.2672C4.59998 18.2672 4.22253 17.8907 4.22253 17.4254C4.22253 16.9605 4.59993 16.5836 5.06438 16.5836C5.52973 16.5836 5.90663 16.9605 5.90663 17.4254Z" fill="white"/>
<path d="M22.286 17.4254C22.286 18.472 21.4383 19.3199 20.3916 19.3199C19.345 19.3199 18.4971 18.472 18.4971 17.4254C18.4971 16.3787 19.3455 15.5312 20.3916 15.5312C21.4378 15.5312 22.286 16.3787 22.286 17.4254Z" fill="#4A494A"/>
<path d="M20.3916 18.2673C20.8566 18.2673 21.2336 17.8904 21.2336 17.4254C21.2336 16.9604 20.8566 16.5834 20.3916 16.5834C19.9266 16.5834 19.5497 16.9604 19.5497 17.4254C19.5497 17.8904 19.9266 18.2673 20.3916 18.2673Z" fill="white"/>
<path d="M17.8851 17.4254C17.8851 18.472 17.0374 19.3199 15.9903 19.3199C14.9443 19.3199 14.0959 18.472 14.0959 17.4254C14.0959 16.3787 14.9443 15.5312 15.9903 15.5312C17.0374 15.5312 17.8851 16.3787 17.8851 17.4254Z" fill="#4A494A"/>
<path d="M16.8328 17.4254C16.8328 17.8907 16.4558 18.2672 15.9903 18.2672C15.5259 18.2672 15.1489 17.8907 15.1489 17.4254C15.1489 16.9605 15.5259 16.5836 15.9903 16.5836C16.4558 16.5836 16.8328 16.9605 16.8328 17.4254Z" fill="white"/>
</svg>
