<svg width="109" height="65" viewBox="0 0 109 65" fill="none" xmlns="http://www.w3.org/2000/svg">
<g clip-path="url(#clip0_145_141)">
<path d="M41.9533 48.2843C41.7096 48.1151 39.5818 46.5682 39.8665 44.3338C40.016 43.3278 39.3291 42.3856 38.3222 42.223C37.3063 42.0588 36.3516 42.7491 36.188 43.7637C36.1721 43.8619 35.9823 45.1362 36.4466 46.7595C34.161 49.5272 30.75 51.1139 27.0516 51.1139C23.287 51.1139 19.8173 49.4731 17.5322 46.6125C16.8906 45.8091 15.7193 45.6786 14.9163 46.32C14.1131 46.9615 13.982 48.1327 14.6236 48.9357C17.6191 52.6856 22.1487 54.8364 27.0515 54.8364C31.4023 54.8364 35.4566 53.1397 38.4082 50.138C38.8096 50.5541 39.2793 50.9599 39.8309 51.3426C40.1545 51.567 40.5242 51.6751 40.8904 51.6747C41.4798 51.6747 42.0596 51.3954 42.4212 50.8746C43.0073 50.0302 42.7979 48.8706 41.9533 48.2843Z" fill="#234087"/>
<path d="M36.8317 34.2468C36.8339 34.2022 36.8385 34.1582 36.8385 34.1133C36.8385 32.5597 35.5787 31.2996 34.0248 31.2996C32.4709 31.2996 31.2114 32.5597 31.2114 34.1133C31.2114 34.1582 31.216 34.2022 31.2182 34.2468H36.8317Z" fill="#234087"/>
<path d="M19.3801 36.9268C20.9337 36.9268 22.1935 35.6667 22.1935 34.1131C22.1935 32.5595 20.9337 31.2994 19.3801 31.2994C17.8265 31.2994 16.5664 32.5595 16.5664 34.1131C16.5664 35.6667 17.8262 36.9268 19.3801 36.9268Z" fill="#234087"/>
<path d="M56.1497 36.6261V36.6155C56.1497 26.0994 50.3252 16.9207 41.7432 12.1142C41.1031 10.4945 40.2336 7.45223 41.9028 5.78263C43.1252 4.56083 44.4643 5.40553 44.846 5.69373C45.6497 6.30013 46.2669 7.39633 45.7252 8.37053C45.2257 9.26913 45.5486 10.4023 46.447 10.9016C47.3459 11.4013 48.4783 11.0781 48.978 10.1795C50.3465 7.71813 49.5511 4.58193 47.0865 2.72203C44.5669 0.820825 41.4242 0.992326 39.2667 3.15063C37.2371 5.18013 37.0091 7.84673 37.3539 10.1342C34.445 9.11113 31.3212 8.54823 28.067 8.54823C12.5909 8.54843 0 21.1393 0 36.6155C0 52.0917 12.5909 64.6826 28.0671 64.6826C43.5264 64.6826 56.1131 52.1192 56.1408 36.6664C56.1411 36.6529 56.1497 36.6396 56.1497 36.6261ZM52.201 33.4654C43.3959 28.2468 41.6897 19.8243 41.3711 16.2432C47.1797 20.0493 51.2664 26.2676 52.201 33.4654ZM28.0671 12.2709C31.3476 12.2709 34.4767 12.9269 37.3355 14.1087C29.6301 22.7365 12.2629 25.3998 6.119 26.0878C10.0522 17.9207 18.4121 12.2709 28.0671 12.2709ZM28.0671 60.9601C14.6434 60.9601 3.7225 50.0391 3.7225 36.6155C3.7225 34.3134 4.0507 32.088 4.6505 29.9756C6.3868 29.8345 12.4028 29.2486 19.3074 27.4583C27.4315 25.3518 33.6774 22.4146 37.9652 18.697C38.2208 20.1385 38.6425 21.8491 39.3383 23.6793C41.0095 28.0747 44.6246 33.9908 52.3821 37.7867C51.7687 50.6684 41.098 60.9601 28.0671 60.9601Z" fill="#234087"/>
<path d="M108.914 36.5759C108.914 36.568 108.914 36.5607 108.914 36.5531C108.894 27.6646 104.718 19.7391 98.2343 14.6065C99.465 13.1855 100.429 10.9977 100.646 7.63242C100.818 4.97212 100.277 2.95292 99.0366 1.63032C98.3393 0.886422 97.0613 0.00012207 94.9337 0.00012207C92.1974 0.00012207 89.1253 1.47832 87.03 2.71832C84.9229 3.96552 82.7794 5.56832 80.8534 7.31822C78.9274 5.56832 76.7839 3.96552 74.6768 2.71832C72.5816 1.47832 69.5095 0.00012207 66.7731 0.00012207C64.6455 0.00012207 63.3675 0.886422 62.6702 1.63032C61.4302 2.95292 60.8886 4.97212 61.0604 7.63242C61.2772 10.9937 62.2313 13.1801 63.46 14.6012C56.9711 19.7348 52.7654 27.6643 52.7654 36.5574V36.572C52.7654 36.5866 52.7723 36.6011 52.7723 36.6156C52.7723 52.0918 65.3675 64.6827 80.844 64.6827C96.3205 64.6827 108.913 52.0918 108.913 36.6156C108.913 36.6024 108.914 36.5892 108.914 36.5759ZM80.8482 60.9602C67.7577 60.9602 57.0525 50.574 56.5281 37.6103C58.4389 36.3541 63.1439 33.1743 68.0743 29.1782C74.3064 24.1275 78.5808 19.6495 80.8482 15.8057C83.1156 19.6495 87.39 24.1275 93.6221 29.1782C98.5522 33.174 103.256 36.3539 105.168 37.61C104.644 50.574 93.9384 60.9602 80.8482 60.9602ZM83.2577 12.3909C94.3452 13.4858 103.27 22.0488 104.918 32.9668C97.7944 28.0751 86.0668 18.9985 83.2577 12.3909ZM78.4384 12.3912C75.6293 18.9948 63.9017 28.0727 56.7773 32.9657C58.4257 22.0484 67.3509 13.4857 78.4384 12.3912ZM94.9338 3.72252C95.8955 3.72252 96.2157 4.06392 96.3211 4.17622C96.8148 4.70272 97.0316 5.84512 96.9318 7.39242C96.8634 8.45092 96.6945 11.0366 95.1201 12.4616C92.011 10.6175 88.5182 9.35742 84.7914 8.83102C88.4891 5.80282 92.5101 3.72252 94.9338 3.72252ZM64.7751 7.39242C64.6753 5.84512 64.8921 4.70272 65.3858 4.17622C65.4912 4.06382 65.8114 3.72252 66.7731 3.72252C69.1968 3.72252 73.2164 5.80222 76.9141 8.82972C73.181 9.35582 69.6829 10.6176 66.5692 12.4656C65.7053 11.6483 64.9529 10.1496 64.7751 7.39242Z" fill="#234087"/>
<path d="M88.1701 36.9268C89.724 36.9268 90.9838 35.6667 90.9838 34.1131C90.9838 32.5595 89.724 31.2994 88.1701 31.2994C86.6162 31.2994 85.3567 32.5595 85.3567 34.1131C85.3567 35.6667 86.6165 36.9268 88.1701 36.9268Z" fill="#234087"/>
<path d="M73.5254 36.9268C75.079 36.9268 76.3388 35.6667 76.3388 34.1131C76.3388 32.5595 75.079 31.2994 73.5254 31.2994C71.9718 31.2994 70.7117 32.5595 70.7117 34.1131C70.7117 35.6667 71.9715 36.9268 73.5254 36.9268Z" fill="#234087"/>
<path d="M92.9829 46.32C92.1792 45.6772 91.0083 45.8097 90.3672 46.6125C88.082 49.4731 84.6123 51.1139 80.8475 51.1139C77.0827 51.1139 73.613 49.4731 71.3278 46.6125C70.6863 45.8098 69.5155 45.6779 68.7121 46.32C67.909 46.9615 67.7778 48.1327 68.4196 48.9357C71.4151 52.6856 75.9449 54.8364 80.8475 54.8364C85.7501 54.8364 90.28 52.6856 93.2754 48.9357C93.9172 48.1326 93.786 46.9614 92.9829 46.32Z" fill="#234087"/>
</g>
<defs>
<clipPath id="clip0_145_141">
<rect width="108.914" height="64.6827" fill="white"/>
</clipPath>
</defs>
</svg>
