<svg width="119" height="62" viewBox="0 0 119 62" fill="none" xmlns="http://www.w3.org/2000/svg">
<g clip-path="url(#clip0_145_63)">
<path d="M38.317 18.6357L24.3331 21.2205C23.4334 24.5106 22.0038 28.2549 19.3716 30.5463C18.6808 31.1523 17.6202 31.081 17.0142 30.3854C16.399 29.6893 16.4747 28.634 17.1659 28.0183C19.4094 26.0681 20.6499 22.2142 21.3412 19.4026C21.4735 18.768 21.985 18.2377 22.6762 18.1146L38.4877 15.1987C40.0118 14.9147 40.8262 14.0484 41.0628 13.0968C41.1578 12.7182 41.167 12.3299 41.1103 11.9605C41.0439 11.5868 40.9208 11.2314 40.722 10.9333C40.277 10.2372 39.4253 9.79219 38.2604 9.98169L19.3527 13.0968C9.4112 14.7348 6.0217 22.5744 7.2812 31.8905C7.4043 32.8091 6.7606 33.6516 5.8419 33.7747C4.9238 33.8979 4.0808 33.2541 3.9576 32.3355C3.5601 29.4386 3.579 26.7258 3.9959 24.2502L0 24.4204V21.0639L4.8665 20.8603C7.1105 14.5312 12.2329 10.8718 18.8131 9.78789L37.7208 6.67279C40.3909 6.23259 42.4075 7.37809 43.5341 9.12039C43.9888 9.82089 44.2918 10.6067 44.4241 11.4211C44.5564 12.2447 44.5283 13.0969 44.3199 13.9113C44.2065 14.3844 44.0266 14.8483 43.7896 15.2885L65.2917 15.2933C72.4686 15.2933 72.2694 26.7686 65.2917 26.7686H54.6589L54.6686 26.8064C55.8897 29.7038 54.6308 33.1786 51.667 34.4094C53.4281 37.1978 52.5381 41.4913 49.2718 42.7269C51.1275 46.4053 48.4574 50.8932 44.0737 50.6232L35.316 50.088C34.5869 50.041 33.9242 49.8989 33.3464 49.6716L30.4495 49.8044L17.4026 50.4007C14.846 50.5141 12.8012 50.3251 11.0401 49.4443C10.311 49.0754 9.6576 48.6115 9.0613 48.0147L0.0001 48.9236V45.5531L6.9215 44.8618C6.8454 44.6916 6.7606 44.5118 6.6845 44.3315C6.3156 43.4841 6.7039 42.4947 7.5556 42.1258C8.3986 41.7564 9.3924 42.1447 9.7618 42.9969C10.5665 44.8337 11.4473 45.8938 12.5361 46.4431C13.6913 47.0301 15.2343 47.1436 17.2606 47.0491L30.2697 46.4572C30.0331 45.7616 29.9381 45.0325 29.9856 44.3223C30.0331 43.5646 30.2222 42.8263 30.563 42.1447C30.6483 41.9789 30.7428 41.8131 30.8471 41.657C29.8911 41.037 29.2377 40.1184 28.8591 39.0863C28.6128 38.395 28.4989 37.647 28.5183 36.9087C28.5372 36.1656 28.6981 35.4268 28.9822 34.7549C29.1048 34.466 29.2566 34.1819 29.4272 33.9167C28.5464 33.3107 27.9215 32.4542 27.5332 31.4929C27.2491 30.7735 27.1071 29.9877 27.1071 29.2019C27.1071 28.4302 27.2588 27.6487 27.5429 26.9293C28.3287 24.9602 30.099 23.407 32.7788 23.407H65.2918C67.8387 23.407 67.99 18.6399 65.2918 18.6399L38.317 18.6357ZM49.3192 26.7686H32.7786C31.6801 26.7686 30.97 27.3842 30.6578 28.1604C30.525 28.492 30.4586 28.8565 30.4586 29.2211C30.4586 29.5711 30.5158 29.9216 30.6481 30.2435C30.9419 30.9726 31.6423 31.5359 32.7786 31.5359H49.0351C52.6989 31.5359 52.6233 26.7686 49.3192 26.7686ZM47.2454 39.702C49.8209 39.8062 50.0483 35.3372 46.9235 35.2708L33.7346 35.0056C32.8921 34.9867 32.3336 35.4555 32.0685 36.0663C31.9454 36.3596 31.879 36.6815 31.8697 37.0033C31.86 37.3252 31.9075 37.6471 32.0117 37.9457C32.2483 38.5943 32.8256 39.1149 33.7631 39.1528L47.2454 39.702ZM35.5146 46.7364L44.2728 47.2764C46.9613 47.4373 47.5672 43.3329 44.1686 43.1196L35.5713 42.5801C34.5489 42.566 33.8766 43.0348 33.5644 43.6548C33.4316 43.92 33.3463 44.2181 33.337 44.5162C33.3084 44.824 33.3559 45.1318 33.4504 45.4111C33.6967 46.1023 34.3691 46.6705 35.5146 46.7364Z" fill="#22428F"/>
<path fill-rule="evenodd" clip-rule="evenodd" d="M64.1651 56.4127C68.3496 56.4127 71.7298 53.0232 71.7298 48.848C71.7298 47.2953 71.2659 45.856 70.4704 44.6538L70.4515 44.6252L70.4326 44.6014L64.1651 35.3371L57.9068 44.5965L57.8782 44.6343L57.8685 44.6537C57.0638 45.8559 56.5999 47.2952 56.5999 48.8479C56.5999 53.0232 59.9894 56.4127 64.1651 56.4127Z" fill="#22428F"/>
<path d="M109.001 0H85.2077C79.8865 0 75.5503 4.786 75.5503 10.6706V40.3812C75.5503 46.2609 79.8865 51.0469 85.2077 51.0469H88.029V47.6337H85.2077C81.7615 47.6337 78.9586 44.3766 78.9586 40.3812V10.6706C78.9586 6.6655 81.7615 3.4089 85.2077 3.4089H109.001C112.447 3.4089 115.25 6.6655 115.25 10.6706V40.3812C115.25 44.3766 112.447 47.6337 109.001 47.6337H105.043V51.0469H109.001C114.331 51.0469 118.658 46.2609 118.658 40.3812V10.6706C118.658 4.786 114.331 0 109.001 0Z" fill="#22428F"/>
<path d="M84.6297 39.7044H89.1651C90.1118 39.7044 90.8695 38.9419 90.8695 38C90.8695 37.0581 90.1118 36.2912 89.1651 36.2912H84.6297C83.683 36.2912 82.9258 37.0581 82.9258 38C82.9258 38.9419 83.683 39.7044 84.6297 39.7044Z" fill="#22428F"/>
<path d="M94.8365 36.2912C93.8995 36.2912 93.1326 37.0581 93.1326 38C93.1326 38.9419 93.8995 39.7044 94.8365 39.7044H99.3719C100.319 39.7044 101.076 38.9419 101.076 38C101.076 37.0581 100.319 36.2912 99.3719 36.2912H94.8365Z" fill="#22428F"/>
<path d="M105.043 36.2912C104.106 36.2912 103.339 37.0581 103.339 38C103.339 38.9419 104.106 39.7044 105.043 39.7044H109.578C110.525 39.7044 111.283 38.9419 111.283 38C111.283 37.0581 110.525 36.2912 109.578 36.2912H105.043Z" fill="#22428F"/>
<path d="M84.4883 9.66711V30.6292H109.379V9.66711H84.4883ZM96.7111 26.8989C94.3251 26.8989 92.3657 25.0524 92.3463 22.7896C92.3463 22.0416 92.5072 21.4071 92.5737 21.1656C92.5645 21.1753 92.5645 21.2083 92.5645 21.2369C92.5737 21.1327 92.6115 20.9291 92.8011 20.4322L95.1207 14.8647C95.3481 14.3159 95.8784 13.9558 96.4746 13.9417C97.0902 13.9179 97.6109 14.2587 97.8664 14.7939L100.338 19.9396C100.357 19.9774 100.366 20.0153 100.385 20.0531L100.603 20.6212C100.934 21.3173 101.076 22.2689 101.076 22.5433C101.076 24.9482 99.116 26.8989 96.7111 26.8989Z" fill="#22428F"/>
<path d="M105.043 41.9624H88.0291C87.0921 41.9624 86.3252 42.7293 86.3252 43.6712C86.3252 44.6136 87.0921 45.3756 88.0291 45.3756H90.292V59.5491C90.292 60.491 91.0589 61.2579 92.0056 61.2579H101.076C102.013 61.2579 102.78 60.491 102.78 59.5491V52.4338V46.4121V45.3757H105.043C105.99 45.3757 106.747 44.6137 106.747 43.6713C106.747 42.7294 105.99 41.9624 105.043 41.9624ZM93.71 47.6337H99.372V51.0469H93.71V47.6337ZM93.71 53.6694H99.372V57.0778H93.71V53.6694Z" fill="#22428F"/>
</g>
<defs>
<clipPath id="clip0_145_63">
<rect width="118.658" height="61.2579" fill="white"/>
</clipPath>
</defs>
</svg>
