<svg width="60" height="116" viewBox="0 0 60 116" fill="none" xmlns="http://www.w3.org/2000/svg">
<g clip-path="url(#clip0_145_152)">
<path d="M36.7369 24.5906C43.5275 24.5906 49.0322 19.0858 49.0322 12.2953C49.0322 5.50479 43.5275 0 36.7369 0C29.9464 0 24.4417 5.50479 24.4417 12.2953C24.4417 19.0858 29.9464 24.5906 36.7369 24.5906Z" fill="#214390"/>
<path d="M58.4787 115.69V58.5042C58.4787 58.5042 51.8118 45.2374 44.4226 58.6368" stroke="#234091" stroke-width="1.1973" stroke-miterlimit="10"/>
<path d="M31.4273 110.651C31.4273 110.651 27.184 122.188 20.5537 111.314V84.8079L16.3104 72.7261C16.3104 72.7261 14.8517 71.9305 14.7191 73.5217C14.5865 75.113 12.067 111.977 12.067 111.977C12.067 111.977 6.6302 119.801 0 110.518L3.3151 62.9796C3.3151 62.9796 -8.6115 35.9283 18.0342 19.419C18.0342 19.419 20.62 18.0267 23.0069 20.2146C23.0069 20.2146 30.4991 23.6623 33.7479 29.2317C33.7479 29.2317 36.4663 41.8255 37.9249 44.3468C37.9249 44.3468 56.3434 44.653 57.4841 46.9344C57.683 47.3322 61.4622 49.3213 56.2244 52.106L33.6816 52.3049L28.9078 46.0062C28.9078 46.0062 25.7916 40.702 25.2612 47.3322C25.2612 47.3322 23.8025 57.5096 26.4878 63.7752C26.4878 63.7752 31.2616 78.8921 31.7588 80.2845L31.4273 110.651Z" fill="#214390"/>
</g>
<defs>
<clipPath id="clip0_145_152">
<rect width="59.0773" height="115.981" fill="white"/>
</clipPath>
</defs>
</svg>
