<svg width="65" height="109" viewBox="0 0 65 109" fill="none" xmlns="http://www.w3.org/2000/svg">
<g clip-path="url(#clip0_145_97)">
<path d="M26.2087 36.2364L23.6918 32.8805L22.0139 17.7792L45.5049 8.55058C51.3776 0.999878 41.3101 0.999878 41.3101 0.999878L11.9464 10.2286V41.2702L9.42952 53.0157L1.03992 103.353C1.03992 103.353 5.23472 111.743 11.1075 103.353L19.4971 68.1171L32.0815 103.353C32.0815 103.353 41.3101 111.743 40.4711 99.1587L27.8867 61.4054V56.3716L30.4036 48.8209L39.6322 56.3716L35.4374 61.4054" stroke="#214391" stroke-width="2" stroke-miterlimit="10"/>
<path d="M33.7595 76.5067L48.8608 57.2106C48.8608 57.2106 51.3777 54.6937 48.8608 52.1768C48.0218 51.3378 31.2426 38.7534 31.2426 38.7534" stroke="#214391" stroke-width="2" stroke-miterlimit="10"/>
<path d="M13.6243 59.7274L16.1412 42.9481" stroke="#214391" stroke-width="2" stroke-miterlimit="10"/>
<path d="M16.9801 40.4313V38.7533" stroke="#214391" stroke-width="2" stroke-miterlimit="10"/>
<path d="M33.7594 64.7612V63.0833" stroke="#214391" stroke-width="2" stroke-miterlimit="10"/>
<path d="M53.0557 53.8546C53.0557 53.8546 53.4405 53.4698 54.064 52.7496" stroke="#214391" stroke-width="2" stroke-miterlimit="10"/>
<path d="M55.8645 50.5084C61.4966 42.9862 71.9963 23.9479 51.917 5.45251" stroke="#214391" stroke-width="2" stroke-miterlimit="10"/>
<path d="M50.8425 4.48893C50.4712 4.16473 50.0903 3.84073 49.6997 3.51703" stroke="#214391" stroke-width="2" stroke-miterlimit="10"/>
<path d="M41.5136 33.923C44.79 30.6466 44.865 25.4097 41.6812 22.2259C38.4974 19.0421 33.2604 19.1171 29.9841 22.3935C26.7078 25.6698 26.6327 30.9068 29.8165 34.0906C33.0003 37.2744 38.2373 37.1993 41.5136 33.923Z" stroke="#214391" stroke-width="2" stroke-miterlimit="10"/>
</g>
<defs>
<clipPath id="clip0_145_97">
<rect width="64.6809" height="108.082" fill="white"/>
</clipPath>
</defs>
</svg>
