<svg width="104" height="73" viewBox="0 0 104 73" fill="none" xmlns="http://www.w3.org/2000/svg">
<g clip-path="url(#clip0_145_108)">
<path d="M70.6965 14.9078C70.6965 14.9078 70.9259 18.6723 76.1304 19.9474V23.3659C76.1304 23.3659 73.9083 18.5908 69.7857 17.2614C65.6631 15.932 70.6965 14.9078 70.6965 14.9078Z" fill="#234087"/>
<path d="M31.7704 14.9168C31.7704 14.9168 31.4652 19.9252 24.541 21.6217V26.1698C24.541 26.1698 27.4974 19.8169 32.9823 18.0482C38.4672 16.2795 31.7704 14.9168 31.7704 14.9168Z" fill="#234087"/>
<path d="M102.706 15.1967C101.216 17.9266 97.7238 22.5721 90.6197 24.3706L88.0681 18.9404C88.0681 18.9404 97.2635 19.3158 98.572 10.4181C99.6332 3.2017 82.3232 9.675 75.522 12.4469C73.5207 13.2625 71.7558 14.5758 70.4278 16.2807C70.3861 16.3343 70.3445 16.3883 70.3031 16.4428C69.4055 17.624 68.5844 19.0522 68.445 20.4451C68.3465 21.4288 68.2396 22.9505 67.8928 24.8478C67.0874 29.2607 64.988 35.705 58.6967 42.1333C58.6967 42.1333 58.4756 42.6322 58.2849 43.3764C57.912 44.8318 58.1763 46.3686 58.9683 47.645C59.5928 48.6512 59.915 49.9895 59.6991 51.769C59.0318 57.2686 58.7625 62.1044 57.5708 70.1987C57.3317 71.8229 55.8492 72.9675 54.2181 72.782C53.2887 72.676 52.3358 72.6211 51.3649 72.6211C50.3636 72.6211 49.3816 72.6797 48.4244 72.7919C46.7911 72.9836 45.3033 71.8367 45.0639 70.2099C43.8706 62.1087 43.6017 57.2712 42.934 51.7691C42.7178 49.9876 43.041 48.6483 43.6668 47.6418C44.4594 46.3667 44.7237 44.8312 44.3511 43.3768C44.1604 42.6323 43.9393 42.1334 43.9393 42.1334C37.686 35.7437 35.5741 29.3383 34.7576 24.9278C34.3997 22.9932 34.2908 21.4426 34.191 20.4452C34.0497 19.0337 33.2083 17.5855 32.297 16.3954C32.267 16.3562 32.2369 16.3173 32.2068 16.2786C30.9967 14.7275 29.3988 13.5229 27.5834 12.7649C21.0938 10.0548 2.49117 2.8854 3.57257 10.2389C4.88107 19.1366 14.662 18.9404 14.662 18.9404L12.1104 24.3706C1.77337 21.7536 0.105072 13.0195 0.105072 13.0195C-1.42423 0.6924 14.0995 2.9072 23.2851 5.2478C28.2456 6.5118 33.4749 6.2495 38.2708 4.4596C38.3343 4.4359 38.3965 4.4125 38.4576 4.3893C38.8459 4.2418 39.2188 4.0985 39.5705 3.9624C41.388 2.8459 46.0658 0 51.2998 0C58.3693 0 61.4772 3.3474 63.0595 3.9601C63.3922 4.089 63.7438 4.2241 64.1096 4.3631C64.1405 4.3748 64.1717 4.3867 64.2032 4.3985C69.0825 6.2364 74.4114 6.5291 79.4642 5.2429C87.676 3.1526 101.747 1.2418 103.554 9.6538C103.959 11.5389 103.63 13.5042 102.706 15.1967Z" fill="#234087"/>
<path opacity="0.71" d="M95.0712 22.0246C95.0712 24.0442 93.676 25.7508 91.7617 26.3024C93.1418 25.374 93.4967 24.1052 93.4967 22.709C93.4967 20.4705 91.6011 18.4897 88.8494 17.3279C89.3679 17.1355 89.9113 17.1445 90.5004 17.1445C93.0657 17.1445 95.0712 19.5585 95.0712 22.0246Z" fill="#234087"/>
<path d="M18.3257 28.2307C22.6797 28.2307 26.2093 25.924 26.2093 23.0785C26.2093 20.233 22.6797 17.9263 18.3257 17.9263C13.9717 17.9263 10.4421 20.233 10.4421 23.0785C10.4421 25.924 13.9717 28.2307 18.3257 28.2307Z" fill="#FABF8E"/>
<path opacity="0.71" d="M9.29468 22.3915C9.29468 24.4111 10.6899 26.1177 12.6042 26.6693C11.2241 25.7409 10.3742 24.4746 10.3742 23.0785C10.3742 20.84 12.5587 18.9348 15.6108 18.224C15.0923 18.0316 14.529 17.9263 13.9399 17.9263C11.3746 17.9263 9.29468 19.9253 9.29468 22.3915Z" fill="#234087"/>
<path d="M74.9223 23.0746C74.9046 26.916 75.9354 27.1755 77.5884 28.4393C79.2414 29.7031 82.0006 28.9463 84.1166 29.8175C86.1027 30.6352 88.7003 29.3173 90.3779 28.2737C91.0868 27.8327 91.9677 26.7262 92.4507 26.1184C93.1869 25.1919 93.6188 24.1236 93.6188 23.0717C93.6188 20.7421 91.9104 18.3001 88.9765 17.2688C88.1328 16.9722 87.0442 17.0112 86.2676 16.5676C85.0125 15.8506 83.7504 16.0946 82.8834 16.3258C81.7954 16.6159 80.6114 17.7444 79.4742 18.0667C76.1607 19.0058 74.9339 20.5617 74.9223 23.0746Z" fill="#FABF8E"/>
<path d="M82.8837 27.7139C84.1657 27.7139 85.2049 26.6747 85.2049 25.3927C85.2049 24.1108 84.1657 23.0715 82.8837 23.0715C81.6017 23.0715 80.5625 24.1108 80.5625 25.3927C80.5625 26.6747 81.6017 27.7139 82.8837 27.7139Z" fill="#FFDAB9"/>
<path d="M79.4743 21.1856C80.5158 21.1856 81.3602 20.3413 81.3602 19.2997C81.3602 18.2582 80.5158 17.4138 79.4743 17.4138C78.4327 17.4138 77.5884 18.2582 77.5884 19.2997C77.5884 20.3413 78.4327 21.1856 79.4743 21.1856Z" fill="#FFDAB9"/>
<path d="M84.9872 19.2997C85.5881 19.2997 86.0752 18.8126 86.0752 18.2117C86.0752 17.6108 85.5881 17.1237 84.9872 17.1237C84.3863 17.1237 83.8992 17.6108 83.8992 18.2117C83.8992 18.8126 84.3863 19.2997 84.9872 19.2997Z" fill="#FFDAB9"/>
<path d="M86.3653 23.2892C87.1264 23.2892 87.7435 22.6722 87.7435 21.911C87.7435 21.1499 87.1264 20.5328 86.3653 20.5328C85.6041 20.5328 84.9871 21.1499 84.9871 21.911C84.9871 22.6722 85.6041 23.2892 86.3653 23.2892Z" fill="#FFDAB9"/>
<path d="M88.7589 26.1181C89.2797 26.1181 89.7019 25.6959 89.7019 25.1751C89.7019 24.6543 89.2797 24.2321 88.7589 24.2321C88.2381 24.2321 87.8159 24.6543 87.8159 25.1751C87.8159 25.6959 88.2381 26.1181 88.7589 26.1181Z" fill="#FFDAB9"/>
<path d="M78.8911 29.7377C79.6523 29.7377 80.2693 29.1207 80.2693 28.3595C80.2693 27.5984 79.6523 26.9813 78.8911 26.9813C78.13 26.9813 77.5129 27.5984 77.5129 28.3595C77.5129 29.1207 78.13 29.7377 78.8911 29.7377Z" fill="#FFDAB9"/>
<path d="M77.5159 25.1751C78.2771 25.1751 78.8941 24.5581 78.8941 23.7969C78.8941 23.0357 78.2771 22.4187 77.5159 22.4187C76.7547 22.4187 76.1377 23.0357 76.1377 23.7969C76.1377 24.5581 76.7547 25.1751 77.5159 25.1751Z" fill="#FFDAB9"/>
<path d="M87.385 30.1076C88.1462 30.1076 88.7632 29.4906 88.7632 28.7294C88.7632 27.9682 88.1462 27.3512 87.385 27.3512C86.6239 27.3512 86.0068 27.9682 86.0068 28.7294C86.0068 29.4906 86.6239 30.1076 87.385 30.1076Z" fill="#FFDAB9"/>
<path d="M90.9352 23.5067C91.9768 23.5067 92.8211 22.6624 92.8211 21.6208C92.8211 20.5793 91.9768 19.7349 90.9352 19.7349C89.8937 19.7349 89.0493 20.5793 89.0493 21.6208C89.0493 22.6624 89.8937 23.5067 90.9352 23.5067Z" fill="#FFDAB9"/>
</g>
<defs>
<clipPath id="clip0_145_108">
<rect width="103.724" height="72.8128" fill="white"/>
</clipPath>
</defs>
</svg>
