<svg width="102" height="103" viewBox="0 0 102 103" fill="none" xmlns="http://www.w3.org/2000/svg">
<g clip-path="url(#clip0_145_156)">
<path d="M57.7388 59.8927C57.5373 60.8654 57.2603 61.7918 56.9152 62.6526C56.5707 63.5137 56.1583 64.3087 55.701 65.0272C55.244 65.7462 54.7428 66.3888 54.2299 66.9567C53.7169 67.5247 53.1932 68.0189 52.6907 68.4485C51.684 69.3074 50.7715 69.9135 50.1446 70.3553C49.515 70.7944 49.1675 71.0741 49.2231 71.2088C49.2503 71.2749 49.3762 71.2995 49.5919 71.2807C49.8075 71.2616 50.113 71.1989 50.4957 71.0836C50.8781 70.968 51.3379 70.7997 51.8569 70.5634C52.3754 70.3269 52.9535 70.0223 53.5638 69.6298C54.1737 69.2376 54.8156 68.7568 55.4507 68.172C56.0854 67.5876 56.7121 66.8978 57.2836 66.1037C57.8556 65.3105 58.3707 64.4133 58.793 63.4373C59.2162 62.4617 59.5462 61.4089 59.7728 60.3146C59.9998 59.2201 60.1147 58.1377 60.1497 57.0968C60.1847 56.0554 60.1404 55.0549 60.0454 54.1118C59.854 52.2244 59.4662 50.5685 59.047 49.2157C58.6259 47.8622 58.1705 46.8093 57.7944 46.1098C57.4173 45.4102 57.1181 45.0636 56.9866 45.1203C56.8547 45.177 56.8961 45.6164 57.0313 46.3771C57.1657 47.1376 57.3946 48.22 57.6185 49.5575C57.8409 50.8941 58.06 52.488 58.1365 54.2507C58.1742 55.1316 58.1752 56.054 58.1169 57.0012C58.0586 57.9481 57.9404 58.9199 57.7388 59.8927Z" fill="#234087"/>
<path d="M76.7422 40.2086L76.3293 40.1944L75.9205 40.184C75.6742 40.1787 75.4309 40.1667 75.1909 40.1474C74.7109 40.109 74.2443 40.0415 73.7952 39.9445C72.897 39.751 72.0706 39.4338 71.3411 39.0175C70.6105 38.6027 69.9768 38.0917 69.4404 37.5449C68.9032 36.9979 68.4616 36.4177 68.0973 35.8571C67.7328 35.2957 67.4448 34.7538 67.2136 34.265C66.9824 33.7757 66.8079 33.3392 66.6757 32.9776C66.4125 32.2532 66.3142 31.8311 66.3133 31.8318C66.3146 31.8314 66.2833 32.2633 66.3621 33.0453C66.4023 33.4359 66.4712 33.9139 66.5961 34.4639C66.7215 35.0136 66.9027 35.6362 67.1792 36.3057C67.4561 36.9741 67.8294 37.6913 68.3489 38.4027C68.867 39.1125 69.5373 39.816 70.3759 40.4125C71.2111 41.0104 72.2133 41.4908 73.3034 41.7869C73.8481 41.9358 74.4131 42.0408 74.9874 42.1028C75.2747 42.1339 75.5644 42.1543 75.8552 42.1646L76.6548 42.1942C77.7242 42.2366 78.7619 42.2873 79.749 42.3718C80.7355 42.4566 81.6731 42.5745 82.5251 42.7642C83.3762 42.954 84.1391 43.2201 84.749 43.5961C85.054 43.7836 85.3206 43.9981 85.5477 44.2358C85.775 44.4733 85.9624 44.7342 86.115 45.0054C86.4204 45.5495 86.5867 46.1261 86.6914 46.6441C86.7945 47.1644 86.8387 47.6307 86.8645 48.013C86.8897 48.3959 86.8959 48.6968 86.8997 48.901L86.9032 49.213C86.9032 49.213 86.9345 49.1098 86.9874 48.9109C87.0395 48.7118 87.1137 48.4171 87.1854 48.0303C87.256 47.6434 87.3258 47.1638 87.3399 46.5919C87.3498 46.022 87.3077 45.3504 87.0631 44.6196C86.9402 44.2561 86.7633 43.8806 86.5185 43.5202C86.2746 43.1596 85.9634 42.8166 85.6011 42.5145C85.239 42.2117 84.8287 41.9488 84.3918 41.7246C83.9545 41.5001 83.4906 41.3129 83.0113 41.1541C82.0516 40.8377 81.0319 40.6303 79.9817 40.4832C78.9308 40.3369 77.847 40.2526 76.7422 40.2086Z" fill="#234087"/>
<path d="M31.6593 41.585L31.6647 41.7993L31.6781 42.3346L32.101 42.663C32.2616 42.7877 32.4435 42.895 32.6317 42.9753C32.82 43.0563 33.013 43.1096 33.1971 43.1417C33.5673 43.2051 33.8955 43.1887 34.1834 43.1539C34.472 43.1176 34.7259 43.0599 34.9602 43.001C35.1942 42.9417 35.4088 42.88 35.6077 42.8258C35.8061 42.7716 35.9895 42.7248 36.1485 42.6947C36.3068 42.6641 36.4412 42.6528 36.519 42.6575C36.5582 42.6593 36.5823 42.664 36.5929 42.6668L36.6016 42.669L36.6053 42.6625C36.6079 42.6576 36.6081 42.6575 36.6075 42.6584L36.6044 42.6631L36.6015 42.6674C36.6016 42.6674 36.6021 42.6676 36.6029 42.6683C36.6045 42.6694 36.6077 42.6719 36.6128 42.6771C36.6153 42.6796 36.6183 42.6828 36.6216 42.6868L36.6229 42.6882C36.6126 42.6751 36.6212 42.686 36.6193 42.6835L36.6229 42.6882L36.6348 42.703L36.6486 42.7208L36.6735 42.7541L36.6978 42.789C36.76 42.8819 36.7991 42.9654 36.824 43.0493C36.8487 43.1335 36.861 43.2218 36.8591 43.3377C36.8572 43.4534 36.8386 43.5939 36.8037 43.7748L36.7428 44.0866C36.7209 44.2073 36.6958 44.3455 36.6839 44.5299C36.6784 44.6224 36.6766 44.7271 36.6873 44.8491C36.6982 44.9707 36.7223 45.1108 36.7737 45.2603C36.8245 45.4092 36.9049 45.5648 37.0056 45.6974C37.0306 45.7306 37.0566 45.7626 37.0834 45.7928L37.1151 45.8278L37.1498 45.8639L37.1855 45.8992L37.2196 45.9312C37.2424 45.9521 37.2656 45.9722 37.2889 45.9914C37.4761 46.1458 37.668 46.2461 37.844 46.3164C38.0209 46.3866 38.1852 46.4286 38.3395 46.4576C38.648 46.5141 38.92 46.5217 39.1794 46.5137C39.309 46.5092 39.435 46.4998 39.5599 46.4862C39.6224 46.4794 39.6846 46.4715 39.7476 46.4624L39.8436 46.4475L39.894 46.4388L39.9578 46.4268L38.7308 45.0249L38.716 45.0714L38.7064 45.1037L38.6898 45.1631C38.6795 45.2014 38.6702 45.2383 38.6616 45.275C38.6443 45.3482 38.6294 45.4202 38.6163 45.4924C38.5903 45.6369 38.5715 45.7824 38.5608 45.9318C38.5399 46.23 38.549 46.5448 38.6184 46.8776C38.6533 47.0435 38.7041 47.2137 38.7757 47.3825C38.847 47.5512 38.9398 47.7183 39.053 47.8735C39.166 48.0287 39.2994 48.1709 39.4439 48.2923C39.5161 48.3529 39.5908 48.4088 39.6669 48.4592L39.7172 48.4917C39.7373 48.5043 39.7681 48.5234 39.7859 48.5334C39.8264 48.5573 39.868 48.5797 39.91 48.6011C40.0782 48.6869 40.2567 48.7513 40.4318 48.7939C40.6071 48.8368 40.7784 48.8585 40.9388 48.8664C41.2604 48.8818 41.5383 48.8464 41.7735 48.8097C41.8911 48.791 41.9986 48.7713 42.0927 48.7549C42.1865 48.7384 42.2681 48.7256 42.3232 48.7197C42.3506 48.7166 42.3709 48.7153 42.3794 48.7147C42.3815 48.7147 42.3828 48.7144 42.3834 48.7143C42.3833 48.7145 42.3836 48.7143 42.3834 48.7143L42.3854 48.687C42.3868 48.6648 42.3884 48.6435 42.3905 48.6217C42.3978 48.5384 42.4074 48.4688 42.4183 48.4102C42.4599 48.1751 42.5312 48.1232 42.4944 48.161C42.4766 48.1786 42.4314 48.2148 42.3539 48.2541C42.3154 48.2738 42.2689 48.2946 42.215 48.315L42.1732 48.3303L42.1517 48.3375C41.8329 48.4426 42.0651 48.3718 41.9947 48.3976L42.0041 48.4241L42.096 48.7012C42.1613 48.8997 42.2322 49.1056 42.3095 49.3093C42.4644 49.7176 42.6452 50.1231 42.8667 50.5147C43.0883 50.9059 43.3512 51.2854 43.6748 51.6297C43.9973 51.9731 44.3863 52.2803 44.8285 52.4981C45.2693 52.7177 45.7561 52.8389 46.2204 52.8647C46.6862 52.8919 47.1273 52.8327 47.5292 52.7315C47.9322 52.6298 48.2997 52.4868 48.6402 52.3259C48.9803 52.1648 49.2957 51.9843 49.5913 51.7935C50.1822 51.4114 50.6944 50.9912 51.1544 50.5674C51.6141 50.1429 52.0209 49.7128 52.3888 49.2916C53.1233 48.4479 53.705 47.6411 54.1812 46.9196C54.6563 46.1971 55.0233 45.5577 55.3009 45.0264C55.8541 43.9627 56.0529 43.3336 55.9431 43.2737C55.8313 43.2122 55.4249 43.7138 54.6949 44.6331C54.3293 45.0918 53.8819 45.6544 53.3408 46.2906C52.7992 46.9255 52.1646 47.6372 51.4114 48.3635C51.0346 48.7259 50.6279 49.0913 50.1866 49.4419C49.7455 49.7918 49.2692 50.1281 48.7569 50.4143C48.2471 50.6983 47.6903 50.9394 47.1452 51.045C46.8733 51.0975 46.6068 51.1138 46.3595 51.0853C46.1117 51.0569 45.8841 50.9849 45.6709 50.8653C45.4578 50.7461 45.2566 50.5764 45.0704 50.3598C44.8843 50.1435 44.7151 49.8821 44.5655 49.5908C44.4156 49.2993 44.2853 48.9792 44.17 48.6383C44.112 48.4673 44.0584 48.2923 44.0039 48.106C43.9761 48.0117 43.9496 47.9176 43.9149 47.8043L43.9005 47.7587L43.8899 47.7267L43.8754 47.686C43.8551 47.6312 43.8308 47.5738 43.8008 47.5142C43.7412 47.3954 43.6566 47.2654 43.5414 47.1456C43.4273 47.0255 43.2829 46.9209 43.1389 46.8503C42.9942 46.7784 42.8547 46.7384 42.7328 46.7148C42.4876 46.6698 42.3085 46.679 42.1577 46.688C42.0074 46.699 41.8845 46.7164 41.7736 46.7321C41.663 46.7479 41.5657 46.7628 41.4771 46.774C41.3006 46.7972 41.1594 46.8044 41.0602 46.7951C40.9596 46.7856 40.91 46.7659 40.8702 46.7428C40.8651 46.7396 40.86 46.7366 40.8549 46.733C40.8497 46.7299 40.8575 46.7345 40.8549 46.733L40.8389 46.7219C40.8409 46.7232 40.8227 46.7113 40.8413 46.7234L40.8389 46.7219C40.8266 46.7129 40.8166 46.7038 40.8074 46.6952C40.7893 46.6779 40.7764 46.6617 40.7642 46.6426C40.7408 46.6053 40.7159 46.5493 40.6993 46.4556C40.6828 46.3634 40.6783 46.2388 40.6919 46.1016C40.6985 46.0331 40.7094 45.9612 40.7241 45.89C40.7313 45.8544 40.7397 45.8189 40.7485 45.7852L40.7618 45.7373L40.768 45.7172L40.7704 45.71L40.771 45.7085L40.768 45.7172L41.2946 44.0755L39.5413 44.3153L39.4547 44.3272C39.4183 44.3317 39.3808 44.3356 39.3433 44.3389C39.2683 44.3455 39.1931 44.3495 39.121 44.3504C38.9774 44.3528 38.8421 44.3416 38.751 44.3217C38.7058 44.3122 38.6726 44.3006 38.6603 44.2944C38.6471 44.2885 38.658 44.2888 38.6876 44.3121C38.6912 44.315 38.6952 44.3182 38.6991 44.3217L38.7053 44.3274L38.7137 44.3356L38.7219 44.3442L38.7153 44.3369L38.7137 44.3356L38.724 44.3463L38.7278 44.3504C38.7375 44.3614 38.7474 44.3734 38.7571 44.3861C38.7959 44.4368 38.8287 44.5 38.8462 44.5518C38.8644 44.6039 38.8698 44.6422 38.8718 44.6614C38.8737 44.6808 38.873 44.6822 38.8742 44.6719C38.8759 44.6505 38.8856 44.5846 38.9027 44.5022L38.9653 44.2047C39.0117 43.9788 39.06 43.7065 39.0703 43.4041C39.0817 43.1025 39.0509 42.7689 38.961 42.4482C38.8725 42.1269 38.7284 41.8248 38.5578 41.5647C38.5365 41.5321 38.5148 41.5 38.4927 41.4686L38.4593 41.4218L38.4239 41.3737L38.3893 41.3285L38.353 41.2825C38.323 41.2453 38.2914 41.2082 38.2581 41.1717C38.1254 41.0254 37.964 40.8861 37.7823 40.7726C37.601 40.659 37.4018 40.5723 37.2078 40.517C37.0132 40.4608 36.8247 40.4333 36.6504 40.4228C36.3002 40.4027 36.0051 40.442 35.7406 40.4889C35.4764 40.5374 35.2415 40.5981 35.0222 40.6564C34.8035 40.7149 34.6008 40.7719 34.413 40.8185C34.2258 40.8652 34.053 40.9011 33.9077 40.9185C33.7626 40.9366 33.6479 40.9337 33.5848 40.9216C33.5528 40.9157 33.5326 40.9093 33.5188 40.9032C33.5049 40.8969 33.4954 40.8915 33.4817 40.8811L33.918 41.7447L33.9125 41.5272C33.8816 40.3256 33.8445 39.14 33.7986 37.9686C33.7756 37.3829 33.7502 36.8011 33.7204 36.2214C33.7054 35.9315 33.6892 35.6422 33.6706 35.3517L33.656 35.1334L33.6397 34.9089C33.6242 34.7124 33.5943 34.5215 33.5541 34.3389C33.4732 33.9734 33.3535 33.642 33.2205 33.3374C33.087 33.0327 32.9394 32.7532 32.7876 32.4884C32.4828 31.9598 32.1618 31.4859 31.8447 31.0284C31.527 30.572 31.2114 30.1345 30.9032 29.7037C30.5949 29.2733 30.2937 28.8503 30.0015 28.4305C29.4171 27.5916 28.8696 26.7651 28.362 25.9466L28.175 25.6426C28.1171 25.5481 28.0616 25.4523 28.0073 25.3564C27.8987 25.1641 27.7972 24.9691 27.7018 24.7723C27.5115 24.3784 27.3465 23.9771 27.2051 23.5734C26.9222 22.7657 26.7326 21.9496 26.6158 21.1528C26.4993 20.3555 26.4556 19.577 26.4667 18.833C26.4893 17.3434 26.7304 15.9968 27.0601 14.8486C27.39 13.6983 27.808 12.7437 28.1958 11.9844C28.5844 11.2243 28.9417 10.6565 29.1766 10.2607C29.2945 10.063 29.3826 9.90787 29.4328 9.79587C29.4841 9.68307 29.4976 9.61227 29.4687 9.58597C29.44 9.55987 29.3707 9.57787 29.2626 9.64047C29.1539 9.70417 29.0075 9.81247 28.8283 9.96907C28.4714 10.2824 27.9808 10.7887 27.4484 11.525C26.9172 12.2602 26.3456 13.2289 25.8676 14.4409C25.3904 15.6507 25.0076 17.1051 24.8748 18.7545C24.8088 19.5785 24.8054 20.4501 24.8883 21.3556C24.9717 22.2606 25.1409 23.2001 25.4269 24.1494C25.57 24.6239 25.7427 25.1005 25.9488 25.5744C26.0522 25.8112 26.1638 26.0474 26.2847 26.2819C26.3454 26.3991 26.4075 26.5161 26.473 26.6323L26.6594 26.9613C27.1583 27.8329 27.7022 28.7124 28.2807 29.5933C28.5696 30.0338 28.8668 30.4747 29.1673 30.9159C29.4674 31.357 29.7713 31.7985 30.0655 32.2401C30.3589 32.6814 30.6448 33.1242 30.8863 33.561C31.1272 33.9962 31.3198 34.429 31.3954 34.8034C31.4146 34.8969 31.4267 34.9866 31.4323 35.073L31.4558 35.4813C31.4704 35.7596 31.4831 36.0417 31.495 36.3256C31.5187 36.8936 31.5389 37.4691 31.5579 38.0494C31.5957 39.21 31.6286 40.3915 31.6593 41.585Z" fill="#234087"/>
<path d="M49.1625 29.5559C50.1877 29.4619 51.19 29.3655 52.1678 29.2957C53.1453 29.226 54.099 29.1824 55.0174 29.1984C55.9351 29.2145 56.8188 29.2908 57.6338 29.4672C58.4488 29.6428 59.1908 29.9219 59.8158 30.3211C60.1288 30.5202 60.4133 30.7483 60.6689 31.0025C60.7968 31.1295 60.9171 31.2634 61.0307 31.4027C61.0874 31.4724 61.1427 31.5434 61.1958 31.6159C61.2223 31.6523 61.2487 31.6886 61.2743 31.7256L61.3131 31.7816L61.3553 31.8443L61.4309 31.9589L61.5058 32.077C61.5548 32.1559 61.6021 32.2349 61.6475 32.3141C61.7384 32.4725 61.8214 32.6317 61.8962 32.791C62.0458 33.1096 62.1617 33.4292 62.2384 33.7439C62.3928 34.3738 62.3839 34.9813 62.2173 35.5265C62.0533 36.0726 61.7333 36.5569 61.3325 36.9515C60.9315 37.3471 60.4558 37.6534 59.9707 37.8772C59.4845 38.1014 58.9876 38.2446 58.5139 38.3231C58.0396 38.4016 57.5877 38.4154 57.1766 38.3816C56.765 38.348 56.394 38.2669 56.071 38.1594C55.4226 37.9441 54.9737 37.6265 54.6751 37.3942C54.5252 37.2775 54.4103 37.1815 54.3236 37.1214C54.2369 37.0611 54.1775 37.0369 54.1442 37.0578C54.1115 37.0782 54.1057 37.1434 54.1332 37.2513C54.1609 37.359 54.2223 37.5096 54.3325 37.6924C54.4425 37.8749 54.6026 38.0892 54.829 38.3113C55.0551 38.5328 55.3485 38.7609 55.7134 38.9606C56.0776 39.1604 56.5128 39.3311 57.0066 39.4425C57.5001 39.5541 58.0516 39.6069 58.642 39.5768C59.2321 39.5464 59.8618 39.4344 60.5031 39.2085C61.1427 38.982 61.7982 38.6418 62.3999 38.1353C62.6997 37.8822 62.9848 37.5868 63.2356 37.2458C63.4864 36.9054 63.7024 36.5188 63.8607 36.0968C64.0196 35.6754 64.1198 35.2196 64.1528 34.7551C64.1867 34.2904 64.1544 33.8185 64.0676 33.3586C63.981 32.8983 63.841 32.4497 63.6628 32.0187C63.5737 31.8031 63.4751 31.5916 63.3683 31.3846C63.3149 31.281 63.2595 31.1785 63.2023 31.077L63.115 30.9255L63.0703 30.8503L63.023 30.7725L62.9796 30.702L62.9312 30.6255C62.8986 30.5741 62.8649 30.5232 62.8308 30.4723C62.7625 30.3706 62.6908 30.2701 62.6164 30.1709C62.4674 29.9725 62.3065 29.779 62.1334 29.5936C61.7876 29.2225 61.3936 28.8832 60.9645 28.5902C60.5355 28.2967 60.0726 28.0496 59.5934 27.8483C59.1139 27.6467 58.6183 27.4901 58.1174 27.3691C57.1143 27.1276 56.0927 27.0248 55.0746 26.9905C54.0555 26.9572 53.0364 26.9935 52.0173 27.058C50.9982 27.1229 49.9785 27.2174 48.9572 27.3109C47.936 27.4045 46.937 27.4951 45.9619 27.5548C44.9871 27.6145 44.0357 27.6438 43.1183 27.6127C42.2016 27.5816 41.3183 27.4896 40.4959 27.3051C40.0848 27.2129 39.6894 27.0977 39.314 26.9569C39.1264 26.8865 38.9438 26.8098 38.7666 26.7267C38.7223 26.7059 38.6785 26.6847 38.6348 26.6632L38.5746 26.6331L38.5019 26.5954L38.3747 26.5274C38.3314 26.5037 38.2882 26.4797 38.2454 26.4552C37.5597 26.0641 36.9405 25.5787 36.388 25.0409C35.8353 24.5028 35.3483 23.9139 34.9168 23.3078C34.4851 22.7014 34.1083 22.0778 33.7741 21.4583C33.4401 20.8386 33.1488 20.2226 32.8898 19.6236C32.3729 18.4244 31.984 17.2949 31.6705 16.2916C31.3579 15.2874 31.1218 14.4075 30.9313 13.6855C30.5528 12.2399 30.3516 11.4275 30.1948 11.4396C30.0414 11.4505 29.9477 12.3047 30.0662 13.8314C30.1268 14.5944 30.242 15.5253 30.448 16.5974C30.6552 17.6689 30.951 18.8831 31.403 20.1979C31.6297 20.8549 31.896 21.5367 32.217 22.2334C32.5382 22.9297 32.9138 23.6415 33.3652 24.35C33.8166 25.058 34.3446 25.7637 34.9742 26.43C35.6032 27.0953 36.3376 27.7206 37.1835 28.2402C37.2362 28.2728 37.2895 28.3047 37.3432 28.3363L37.4239 28.3834L37.5088 28.4317L37.5841 28.4738L37.673 28.5219C37.7293 28.5518 37.7857 28.5813 37.8426 28.6102C38.0701 28.7254 38.3028 28.8312 38.5395 28.9277C39.013 29.1206 39.5017 29.2758 39.9973 29.3995C40.9896 29.6466 42.0069 29.7684 43.0252 29.8192C44.0444 29.8694 45.067 29.8483 46.0901 29.7937C47.1133 29.7389 48.1373 29.6498 49.1625 29.5559Z" fill="#234087"/>
<path d="M75.2783 27.6996C75.5233 28.2349 75.8103 28.7546 76.1304 29.2451C76.4506 29.7363 76.8047 30.2003 77.1824 30.6351C77.9385 31.5058 78.7859 32.257 79.6592 32.923C80.5337 33.5893 81.4355 34.1735 82.3347 34.7173C83.2346 35.2607 84.1333 35.7636 85.0171 36.2555C85.9009 36.7471 86.7702 37.2275 87.6153 37.7164C88.4603 38.2051 89.2814 38.7023 90.0695 39.221C91.6461 40.2565 93.0889 41.3857 94.3355 42.641C94.9591 43.2677 95.5342 43.9241 96.0577 44.6056C96.3194 44.9464 96.5682 45.2934 96.8044 45.6456C96.9222 45.8218 97.0372 45.9993 97.149 46.1779L97.2302 46.3089L97.3134 46.4464C97.3636 46.5297 97.4169 46.6216 97.4672 46.7098C98.2797 48.1369 98.8202 49.6721 99.1589 51.2057C99.4981 52.7411 99.6404 54.2757 99.66 55.7568C99.6788 57.239 99.5747 58.6698 99.3984 60.0279C99.2214 61.3865 98.9715 62.6734 98.682 63.8793C98.392 65.0854 98.0615 66.2109 97.7138 67.2508C97.0171 69.3312 96.2529 71.0682 95.5492 72.4439C94.8456 73.8211 94.1974 74.8336 93.7335 75.5039C93.5018 75.8397 93.3171 76.0913 93.1979 76.2676C93.0786 76.4435 93.0256 76.5449 93.0528 76.5734C93.0793 76.6012 93.1857 76.5552 93.3628 76.4287C93.5394 76.302 93.7859 76.0937 94.0827 75.7945C94.6769 75.1973 95.4671 74.2306 96.3121 72.8772C97.1574 71.5251 98.0633 69.7902 98.8975 67.6832C99.3139 66.6296 99.7122 65.4832 100.068 64.2456C100.424 63.0081 100.738 61.6792 100.975 60.2629C101.211 58.8467 101.372 57.3422 101.399 55.7612C101.426 54.1813 101.32 52.522 100.989 50.8255C100.823 49.9779 100.6 49.1219 100.306 48.2701C100.013 47.4185 99.6473 46.5713 99.2001 45.7477C99.1435 45.644 99.0884 45.5444 99.027 45.4376L98.9417 45.2902L98.8512 45.1376C98.7319 44.9387 98.6093 44.7409 98.4829 44.5444C98.23 44.1515 97.9623 43.7638 97.6803 43.3828C97.1161 42.6209 96.4936 41.8864 95.8195 41.1881C95.1457 40.4894 94.4208 39.827 93.6571 39.2017C92.8932 38.5762 92.091 37.9878 91.2633 37.4297C89.608 36.3117 87.8509 35.3205 86.0979 34.3298C85.2218 33.8336 84.3465 33.336 83.492 32.8133C82.6379 32.2905 81.8036 31.7426 81.0219 31.1421C80.2406 30.5419 79.5125 29.888 78.8832 29.1604C78.253 28.4331 77.7259 27.6333 77.3268 26.7593C76.8999 25.827 76.5154 24.8521 76.1345 23.8736C75.7542 22.8941 75.3786 21.9082 74.9875 20.9302C74.2072 18.9736 73.3605 17.0478 72.3734 15.2212C71.3889 13.3942 70.2649 11.6663 68.9952 10.1004C67.7273 8.53341 66.3157 7.13121 64.8112 5.92581C63.3074 4.71871 61.7146 3.70791 60.0994 2.87611C59.2917 2.45991 58.4784 2.08721 57.6657 1.75431C57.4623 1.67091 57.2601 1.59041 57.0559 1.51141L56.7546 1.39651L56.5979 1.33831L56.4436 1.28231C56.0319 1.13461 55.6195 0.999113 55.2065 0.877513C53.5553 0.389013 51.902 0.115013 50.308 0.030413C48.7132 -0.055587 47.1792 0.045413 45.7445 0.275113C44.3087 0.504613 42.9714 0.860613 41.7429 1.28431C40.514 1.70861 39.3931 2.20021 38.3772 2.71461C37.3611 3.22931 36.4496 3.76741 35.6356 4.29671C34.8216 4.82641 34.1052 5.34791 33.4794 5.83881C32.2281 6.82201 31.3381 7.67891 30.77 8.29191C30.2025 8.90631 29.9576 9.27951 30.0139 9.33251C30.0707 9.38631 30.4194 9.12481 31.0752 8.62841C31.7314 8.13351 32.6945 7.40121 33.9913 6.55141C34.6398 6.12721 35.3719 5.67461 36.1917 5.21601C37.0115 4.75781 37.9189 4.29321 38.9169 3.85341C39.9148 3.41371 41.0037 2.99871 42.1814 2.64931C43.3588 2.30041 44.6257 2.01781 45.9683 1.85311C47.3102 1.68811 48.7281 1.64281 50.1898 1.76561C51.651 1.88741 53.1547 2.17911 54.6563 2.66371C55.0318 2.78431 55.4069 2.91761 55.7815 3.06191L56.0598 3.17141L56.3474 3.28861C56.5357 3.36651 56.7262 3.44731 56.9154 3.52981C57.6731 3.86001 58.428 4.22541 59.1747 4.62891C60.668 5.43581 62.1273 6.39941 63.4998 7.53601C64.8728 8.67161 66.1564 9.98071 67.3151 11.446C68.4753 12.9106 69.509 14.5297 70.4263 16.2626C71.3461 17.9955 72.1472 19.8406 72.9038 21.7585C73.2833 22.7175 73.6526 23.695 74.0355 24.6868C74.4198 25.6784 74.8142 26.6852 75.2783 27.6996Z" fill="#234087"/>
<path d="M18.1275 45.8632C19.2668 45.5015 20.429 45.2829 21.5787 45.2347C22.728 45.1854 23.8639 45.3077 24.9389 45.5989C26.0139 45.8893 27.0275 46.3475 27.9314 46.9423C28.8346 47.5362 29.6316 48.2668 30.2561 49.0849C30.334 49.1871 30.4091 49.2906 30.4812 49.3952C30.5173 49.4476 30.5526 49.5002 30.5871 49.553L30.6382 49.6326L30.6925 49.7192C30.8416 49.9578 30.9887 50.1981 31.1331 50.438C31.4219 50.9181 31.7003 51.3995 31.9721 51.8825L32.7833 53.3406C32.9211 53.586 33.0617 53.8331 33.2149 54.0849C33.3691 54.3368 33.5326 54.5934 33.7446 54.8625C33.8514 54.9968 33.9713 55.135 34.1195 55.2738C34.2676 55.4117 34.4471 55.5525 34.6699 55.6678C34.7807 55.7252 34.9014 55.775 35.0269 55.8127L35.0683 55.8247L35.0953 55.8321L35.1555 55.8482L35.2693 55.8767C35.4184 55.9127 35.56 55.9423 35.6981 55.9697C35.9737 56.024 36.2355 56.0692 36.4876 56.1153C36.739 56.1612 36.9815 56.2074 37.202 56.2592C37.3118 56.285 37.4161 56.3125 37.5066 56.3406C37.5957 56.3679 37.675 56.3995 37.7062 56.415L37.7145 56.4189L37.7164 56.4196C37.7168 56.4189 37.7148 56.4222 37.7206 56.4132L37.7449 56.3764C37.8077 56.281 37.8705 56.1989 37.9266 56.1338C38.0397 56.0013 38.1394 55.9376 38.1809 55.9239C38.1914 55.92 38.1971 55.9188 38.199 55.9184C38.1993 55.9183 38.1998 55.9183 38.199 55.9184C36.8595 56.0474 37.8144 55.959 37.5092 55.9899C37.4975 55.993 37.5038 55.9944 37.5024 55.9965C37.5027 55.9985 37.5027 55.999 37.5026 55.9979L37.5023 55.9933C37.503 55.9962 37.504 56.0043 37.5044 56.0158C37.5054 56.0388 37.5046 56.0739 37.5017 56.1134C37.4959 56.1931 37.4823 56.2904 37.4639 56.391C37.4455 56.492 37.4224 56.5978 37.3964 56.7047C37.3704 56.8116 37.3414 56.9199 37.3104 57.0278L37.2625 57.1889L37.2148 57.3391L36.9963 58.0262L37.5533 58.413L37.639 58.4725L37.729 58.5364L37.9077 58.6667C38.0259 58.7543 38.1415 58.8429 38.2526 58.9316C38.3635 59.0203 38.4703 59.1096 38.5672 59.1966C38.663 59.2822 38.7529 59.3709 38.8062 59.4328C38.8192 59.4477 38.8293 59.4603 38.8346 59.4668L38.8375 59.4703L38.8515 59.4626L38.8821 59.444C38.9625 59.3954 39.0385 59.3531 39.109 59.3178C39.1795 59.2826 39.2446 59.2544 39.3027 59.2337C39.3324 59.2235 39.3585 59.2149 39.3845 59.2086L39.4026 59.204L39.4118 59.2021C38.1718 59.4536 39.0682 59.2723 38.7915 59.3287L38.792 59.3312L38.7952 59.3451C38.7967 59.3521 38.7957 59.3478 38.796 59.3484L38.7985 59.3589L38.8035 59.3872C38.8102 59.4298 38.816 59.4859 38.8202 59.5451C38.8244 59.6047 38.8273 59.6684 38.8291 59.7336C38.8327 59.8642 38.832 60.001 38.8289 60.1383L38.8223 60.3448L38.8124 60.5442L38.7867 61.0606L39.2012 61.3433C39.1962 61.3399 39.2019 61.3436 39.2032 61.3443L39.2111 61.3494L39.2294 61.3614L39.2687 61.3881C39.2954 61.4066 39.3226 61.4262 39.3495 61.4461C39.4033 61.486 39.4562 61.5274 39.5069 61.5696C39.608 61.6538 39.7004 61.7412 39.7766 61.8253C39.8523 61.9088 39.9115 61.9907 39.9433 62.0492C39.9598 62.0784 39.9686 62.1006 39.9735 62.1123C39.9747 62.1152 39.9755 62.1173 39.9763 62.1189C39.9766 62.1197 39.9767 62.1201 39.9772 62.1206C39.9766 62.1158 39.9789 62.1319 39.976 62.11L39.9771 62.1175L39.9793 62.1324C39.9816 62.1474 39.9802 62.1392 39.9806 62.1393C39.9806 62.1366 39.981 62.139 39.9813 62.1413C39.9821 62.1454 39.9826 62.1488 39.983 62.1516C39.9844 62.1638 39.9863 62.1664 39.9844 62.1813C39.9826 62.1958 39.9747 62.2254 39.9517 62.2818C39.9292 62.3383 39.8911 62.421 39.8496 62.5318C39.8083 62.6421 39.7666 62.7812 39.7462 62.9286C39.7249 63.0759 39.7249 63.2267 39.7403 63.3625C39.7555 63.4992 39.7846 63.6217 39.8186 63.7332C39.8531 63.844 39.8925 63.945 39.9343 64.0379C39.9549 64.0838 39.9773 64.1308 39.9979 64.1715L40.018 64.2106L40.0362 64.2449L40.0732 64.3113C40.173 64.4848 40.2771 64.6314 40.3772 64.765C40.4774 64.8983 40.5741 65.0183 40.6632 65.1307C40.8412 65.3536 40.9895 65.5538 41.0658 65.7095C41.1043 65.7868 41.1245 65.8485 41.133 65.8947C41.1413 65.9415 41.1419 65.9764 41.1316 66.0249C41.1213 66.0727 41.096 66.1339 41.0529 66.2026C41.0316 66.2368 41.0062 66.2727 40.9773 66.309L40.955 66.3365L40.934 66.3616L40.878 66.4235C40.5866 66.7376 40.19 67.0052 39.776 67.2681C39.3612 67.5311 38.928 67.795 38.5288 68.1001C38.1288 68.4034 37.7643 68.7502 37.4738 69.1283C37.3281 69.3169 37.2001 69.5118 37.09 69.7085C37.0349 69.8068 36.9843 69.9056 36.9376 70.0042L36.9034 70.0782L36.8711 70.151C36.8481 70.2039 36.8286 70.2518 36.8087 70.3028C36.6521 70.7041 36.5596 71.1301 36.5814 71.5475C36.5919 71.7552 36.6313 71.9581 36.696 72.1438C36.7603 72.33 36.8494 72.4981 36.9506 72.6441C37.1545 72.937 37.3992 73.1413 37.6297 73.2939C37.862 73.4462 38.0847 73.549 38.2861 73.626C38.69 73.7776 39.0097 73.83 39.2263 73.8472C39.4435 73.8627 39.5595 73.8382 39.567 73.7957C39.5747 73.7527 39.4791 73.6933 39.2944 73.5992C39.1109 73.5042 38.8344 73.3762 38.5097 73.1723C38.3483 73.07 38.1756 72.9476 38.0109 72.7967C37.847 72.646 37.6916 72.4652 37.5849 72.2543C37.4777 72.0435 37.423 71.8056 37.4409 71.5423C37.4577 71.2792 37.5475 70.99 37.6982 70.693C37.7167 70.6566 37.7374 70.6171 37.7566 70.5827L37.789 70.525L37.8219 70.4685C37.8665 70.3933 37.9139 70.319 37.9643 70.2456C38.065 70.0989 38.1776 69.9566 38.3032 69.8199C38.554 69.5461 38.8578 69.2977 39.2144 69.0666C39.5705 68.8339 39.9791 68.621 40.4293 68.3763C40.6542 68.2532 40.8898 68.121 41.1311 67.9647C41.3719 67.8084 41.6196 67.6273 41.8555 67.4033L41.9012 67.359L41.9407 67.32L41.9884 67.2705L42.0335 67.2217C42.0935 67.1554 42.1525 67.0839 42.2093 67.0056C42.3223 66.8496 42.4285 66.6641 42.4998 66.4454C42.572 66.2281 42.6018 65.9781 42.5797 65.7437C42.5591 65.5081 42.4939 65.2941 42.4159 65.1093C42.3372 64.9238 42.2458 64.7638 42.1541 64.618C42.0622 64.4723 41.9691 64.3405 41.8805 64.2163C41.7919 64.0922 41.7073 63.9757 41.6327 63.8651C41.5581 63.7549 41.4932 63.6502 41.4463 63.557L41.4295 63.5227L41.4217 63.506L41.4165 63.4939C41.4039 63.4658 41.3948 63.4431 41.3852 63.4187C41.3665 63.3709 41.3531 63.3272 41.3439 63.2901C41.3353 63.2535 41.3315 63.2241 41.3317 63.2062C41.3318 63.1876 41.3343 63.1815 41.337 63.1743C41.3399 63.1671 41.3439 63.1551 41.3597 63.119C41.3752 63.0831 41.405 63.0233 41.446 62.9348C41.4866 62.8463 41.5369 62.7276 41.5744 62.5875C41.6125 62.4482 41.634 62.2909 41.6344 62.1427C41.6347 62.1056 41.6337 62.0688 41.6318 62.0329C41.6308 62.0152 41.6298 61.9976 41.6277 61.9748L41.6225 61.9218L41.6208 61.9068L41.6201 61.8993L41.6166 61.8738L41.6076 61.816C41.6008 61.7781 41.5931 61.7408 41.5844 61.7047C41.5493 61.5601 41.5 61.4302 41.4448 61.3139C41.3335 61.0807 41.2012 60.8948 41.0646 60.7281C40.9273 60.5622 40.7838 60.417 40.6351 60.2821C40.5607 60.2147 40.4849 60.1501 40.4068 60.0873C40.3677 60.0559 40.3281 60.0249 40.2871 59.994L40.2242 59.9474L40.1908 59.9234L40.1484 59.8942L40.5372 60.6933L40.5489 60.5697L40.5588 60.4512C40.565 60.3723 40.5706 60.2932 40.5754 60.2134C40.585 60.0537 40.592 59.8918 40.5938 59.7223C40.5946 59.6374 40.5941 59.5506 40.5911 59.4595C40.588 59.3681 40.5828 59.2733 40.5708 59.1655C40.5678 59.1386 40.5642 59.1105 40.56 59.0812L40.553 59.0362L40.5434 58.983L40.5407 58.9689C40.5377 58.9536 40.5324 58.9306 40.5277 58.9119C40.5183 58.8751 40.5076 58.8404 40.4971 58.8106C40.4758 58.7497 40.4539 58.7003 40.4327 58.657C40.3902 58.5708 40.3503 58.5074 40.3123 58.4507C40.2743 58.3943 40.2382 58.3461 40.203 58.3015C40.063 58.1263 39.9347 57.9974 39.8056 57.8719C39.677 57.7482 39.5493 57.6343 39.4206 57.5241C39.2919 57.4141 39.1626 57.3081 39.0317 57.2042L38.8338 57.0498L38.733 56.9732L38.6262 56.8939L38.9646 57.9677L39.002 57.8642L39.0356 57.7676C39.0576 57.7034 39.0789 57.6393 39.0997 57.5748C39.1411 57.4457 39.1806 57.3149 39.2178 57.1806C39.2548 57.0462 39.2896 56.9084 39.3208 56.7634C39.3517 56.618 39.3794 56.4666 39.398 56.2949C39.4071 56.2087 39.414 56.1173 39.4149 56.0136C39.4153 55.9619 39.4142 55.9065 39.4101 55.8462L39.4064 55.8015L39.4048 55.785L39.4014 55.757C39.399 55.7383 39.3962 55.7196 39.3928 55.7011C39.3796 55.6271 39.3595 55.5546 39.3344 55.4881C39.2844 55.3546 39.2165 55.2436 39.1503 55.1575C39.0833 55.0703 39.0171 55.0044 38.9555 54.9501C38.8315 54.8422 38.7245 54.7769 38.6271 54.7221C38.4331 54.616 38.2719 54.5558 38.1173 54.5015C37.9636 54.4488 37.8191 54.4074 37.6781 54.3699C37.3967 54.2958 37.1289 54.2383 36.8667 54.1833C36.6052 54.1286 36.3494 54.0776 36.107 54.0234C35.986 53.9964 35.8685 53.9685 35.7596 53.9394L35.6802 53.9173L35.6441 53.9067L35.623 53.9004L35.617 53.8986C35.6138 53.8976 35.6191 53.8993 35.617 53.8986L35.6037 53.8899C35.5891 53.8809 35.5544 53.8561 35.5074 53.8093C35.4605 53.7628 35.4034 53.6965 35.3441 53.6176C35.2246 53.4592 35.0973 53.2553 34.9716 53.0384C34.8455 52.8207 34.7191 52.5879 34.5917 52.3497C34.337 51.8722 34.0773 51.3732 33.8067 50.8719C33.5363 50.37 33.2554 49.8639 32.9625 49.3584C32.8159 49.1054 32.667 48.8532 32.5141 48.6L32.4548 48.5022L32.3903 48.3984C32.3469 48.3295 32.3025 48.2613 32.2574 48.1936C32.1672 48.0582 32.0737 47.9253 31.9771 47.7947C31.2034 46.751 30.2408 45.8513 29.1488 45.1149C28.0567 44.3793 26.8303 43.8117 25.5296 43.4503C24.2293 43.0877 22.8573 42.9343 21.4888 42.9884C20.1194 43.0409 18.7563 43.298 17.447 43.7137C17.0161 43.8504 16.5932 44.003 16.1787 44.1697C16.0751 44.2113 15.972 44.2537 15.8694 44.2971C15.7684 44.3399 15.6607 44.3865 15.5634 44.4295C15.3665 44.5168 15.1704 44.6056 14.9752 44.696C14.1943 45.0578 13.4267 45.4466 12.6798 45.8713C11.9331 46.2965 11.2064 46.7576 10.5127 47.2659C9.81931 47.774 9.15861 48.3296 8.55041 48.9381C7.94211 49.546 7.38771 50.2078 6.90701 50.9136C6.42581 51.6189 6.01951 52.3673 5.69331 53.1353C5.36651 53.9035 5.11931 54.6902 4.93851 55.4747C4.75731 56.2595 4.64171 57.0421 4.57331 57.8124C4.50511 58.5829 4.48401 59.3413 4.49511 60.0844C4.49801 60.2712 4.50241 60.4529 4.50941 60.6411L4.52071 60.9149C4.52501 61.0104 4.53081 61.1058 4.53721 61.201C4.56351 61.5818 4.60661 61.9596 4.66721 62.3326C4.78781 63.0786 4.97841 63.8047 5.23271 64.4942C5.48651 65.184 5.80371 65.8366 6.16771 66.4425C6.89641 67.6564 7.80661 68.6755 8.76661 69.5219C9.72891 70.3695 10.7421 71.0518 11.7421 71.6205C12.7434 72.1887 13.7341 72.6439 14.686 73.0224C15.6384 73.4005 16.5531 73.7016 17.4155 73.9487C17.6311 74.0104 17.8439 74.0688 18.0523 74.1238C18.2486 74.1752 18.4399 74.23 18.6259 74.2881C18.9978 74.4043 19.3487 74.5335 19.6764 74.6743C20.3323 74.9556 20.8954 75.2842 21.3597 75.6337C21.8248 75.9827 22.1908 76.3515 22.472 76.7015C22.7538 77.0517 22.9519 77.3818 23.0956 77.6589C23.2392 77.9363 23.3292 78.1606 23.3947 78.3124C23.4599 78.4646 23.5009 78.5447 23.5398 78.543C23.5785 78.5416 23.6143 78.4496 23.6216 78.2722C23.6285 78.0952 23.6069 77.8321 23.5207 77.4985C23.4344 77.1657 23.2821 76.7618 23.0256 76.3235C22.77 75.8857 22.4083 75.4151 21.9265 74.9638C21.4458 74.5119 20.8463 74.0812 20.1441 73.7069C19.7932 73.5193 19.417 73.3456 19.0184 73.1869C18.8191 73.1076 18.6142 73.0322 18.4041 72.9607C18.2059 72.8929 18.0059 72.8227 17.8027 72.7492C16.9903 72.4553 16.1338 72.1133 15.2514 71.7046C14.3696 71.2957 13.4611 70.8202 12.5598 70.2522C11.6596 69.684 10.7649 69.0225 9.94031 68.238C9.11681 67.4544 8.36521 66.5446 7.78371 65.5031C7.20071 64.4634 6.79611 63.2918 6.62711 62.0379C6.58441 61.7246 6.55581 61.4064 6.54131 61.0845C6.53771 61.004 6.53481 60.9233 6.53301 60.8423L6.52841 60.5856C6.52601 60.4195 6.52561 60.2456 6.52681 60.0755C6.53181 59.3913 6.56591 58.7023 6.64031 58.0148C6.78871 56.6407 7.10241 55.2696 7.66891 53.9905C7.95151 53.3511 8.29651 52.7357 8.70421 52.153C9.11161 51.5701 9.58141 51.02 10.1055 50.5061C11.1533 49.4767 12.4133 48.5944 13.7844 47.823C14.4705 47.4371 15.1848 47.0779 15.9194 46.7398C16.103 46.6553 16.2879 46.572 16.474 46.4899C16.5683 46.4483 16.653 46.4119 16.7451 46.3731C16.8358 46.3349 16.9268 46.2976 17.0182 46.261C17.3834 46.1146 17.7537 45.9813 18.1286 45.8624L18.1275 45.8632Z" fill="#234087"/>
<path d="M0.0690958 28.0511C0.130896 27.62 0.236596 27.1863 0.390496 26.7615C0.697296 25.9124 1.2027 25.0983 1.8977 24.4322C2.2447 24.0993 2.6379 23.8037 3.0707 23.5614C3.5032 23.3191 3.9755 23.1302 4.4735 23.0118C4.9712 22.8932 5.4946 22.8458 6.0186 22.881C6.5426 22.9155 7.0658 23.033 7.5592 23.2265C8.0531 23.4193 8.5159 23.6869 8.9321 24.0063C9.2643 24.2609 9.5665 24.5483 9.8403 24.8566C10.1142 24.5483 10.4164 24.2608 10.7485 24.0063C11.1647 23.6868 11.6276 23.4193 12.1214 23.2265C12.6148 23.033 13.1381 22.9156 13.662 22.881C14.186 22.8458 14.7094 22.8933 15.2071 23.0118C15.7051 23.1302 16.1774 23.3191 16.6099 23.5614C17.0426 23.8038 17.436 24.0993 17.7829 24.4322C18.4779 25.0983 18.9833 25.9124 19.2901 26.7615C19.444 27.1863 19.5497 27.62 19.6116 28.0511C19.6736 28.4824 19.6919 28.9106 19.6744 29.3287C19.6563 29.7604 19.5893 30.1777 19.4892 30.573C19.3889 30.9685 19.256 31.3426 19.1034 31.6952C18.7969 32.4007 18.4155 33.0216 18.014 33.5799C17.6113 34.138 17.1863 34.6342 16.7616 35.0838C16.3366 35.5332 15.9114 35.9358 15.498 36.3008C15.0843 36.6656 14.6821 36.9925 14.2986 37.287C13.5312 37.8754 12.8399 38.3351 12.2616 38.6874C11.6828 39.0393 11.2161 39.283 10.8876 39.4274C10.5591 39.5716 10.3684 39.6163 10.3379 39.5647C10.3072 39.513 10.4347 39.3694 10.6978 39.1327C10.9607 38.8958 11.3595 38.5659 11.8663 38.1376C12.3725 37.709 12.9876 37.1826 13.6701 36.5446C14.3509 35.9061 15.1035 35.1567 15.8413 34.2677C16.209 33.8231 16.5718 33.3429 16.9051 32.8235C17.2375 32.3044 17.5411 31.7447 17.7683 31.149C17.995 30.5544 18.1424 29.9226 18.1453 29.2885C18.1497 28.6282 18.0393 27.9561 17.79 27.3263C17.5423 26.6972 17.1541 26.1107 16.6434 25.6415C16.1347 25.1724 15.5027 24.8235 14.8222 24.6723C14.4825 24.5965 14.132 24.5695 13.7836 24.5966C13.4352 24.6234 13.0889 24.7038 12.7565 24.8367C12.0901 25.1009 11.4838 25.5792 10.9847 26.1944C10.7827 26.4422 10.5992 26.7095 10.4328 26.9893L9.996 27.7238V27.7665L9.9346 27.827L9.865 27.944L9.8404 27.9198L9.8159 27.944L9.7462 27.827L9.6849 27.7665V27.7238L9.2481 26.9893C9.0817 26.7094 8.8982 26.4422 8.6962 26.1944C8.1971 25.5791 7.5908 25.1009 6.9244 24.8367C6.5919 24.7037 6.2458 24.6234 5.8973 24.5966C5.5489 24.5695 5.1984 24.5966 4.8587 24.6723C4.1782 24.8235 3.5461 25.1724 3.0374 25.6415C2.5267 26.1107 2.1386 26.6972 1.8908 27.3263C1.6417 27.9561 1.5312 28.6282 1.5356 29.2885C1.5385 29.9227 1.6859 30.5544 1.9126 31.149C2.1398 31.7446 2.4434 32.3043 2.7758 32.8235C3.109 33.3429 3.4718 33.8231 3.8396 34.2677C4.5773 35.1568 5.33 35.9062 6.0107 36.5446C6.6933 37.1826 7.3084 37.709 7.8146 38.1376C8.3214 38.5659 8.7202 38.8957 8.9831 39.1327C9.2462 39.3695 9.3737 39.513 9.343 39.5647C9.3124 39.6163 9.1218 39.5716 8.7932 39.4274C8.4647 39.283 7.998 39.0393 7.4193 38.6874C6.8409 38.3351 6.1496 37.8754 5.3822 37.287C4.9987 36.9926 4.5964 36.6657 4.1828 36.3008C3.7693 35.9358 3.3441 35.5332 2.9191 35.0838C2.4945 34.6342 2.0694 34.138 1.6667 33.5799C1.2652 33.0216 0.883796 32.4007 0.577296 31.6952C0.424696 31.3426 0.291796 30.9686 0.191396 30.573C0.0913958 30.1777 0.0242958 29.7604 0.00619585 29.3287C-0.0113042 28.9106 0.00699585 28.4824 0.0690958 28.0511Z" fill="#234087"/>
<path d="M54.4273 84.0949C54.2078 84.2161 53.9902 84.3258 53.7809 84.4164C53.5722 84.507 53.3699 84.5785 53.1972 84.6198L53.1344 84.6339L53.1192 84.637L53.1154 84.6378C53.117 84.6375 53.1064 84.6395 53.1181 84.6375L53.1055 84.6398L53.0622 84.6476L52.9939 84.6587L52.919 84.6691C52.8179 84.682 52.7122 84.6909 52.6036 84.6964C52.3864 84.7073 52.1583 84.7043 51.9269 84.6912C51.4633 84.6648 50.9876 84.5998 50.5184 84.5164C50.0487 84.4327 49.5842 84.3302 49.13 84.219C48.2212 83.9956 47.3541 83.739 46.5432 83.4852C45.7321 83.2306 44.9765 82.9774 44.2853 82.7431C42.903 82.2734 41.7783 81.8817 40.9798 81.6499C40.1814 81.4173 39.7093 81.3428 39.6345 81.4858C39.5598 81.6285 39.896 81.9788 40.5826 82.4678C41.2697 82.956 42.306 83.5847 43.6429 84.2647C44.3116 84.6041 45.0557 84.956 45.8731 85.3024C46.6908 85.648 47.5809 85.9898 48.5518 86.292C49.0376 86.4426 49.5437 86.5832 50.0754 86.7026C50.6074 86.8215 51.1639 86.9211 51.7596 86.9733C52.0576 86.9989 52.3658 87.0122 52.6883 87.0036C52.8496 86.9991 53.0145 86.9889 53.1838 86.9707C53.2261 86.9662 53.2686 86.9611 53.3115 86.9555C53.3551 86.9498 53.395 86.9441 53.4456 86.9361L53.5033 86.9267L53.5754 86.9138C53.6222 86.905 53.6682 86.8956 53.7135 86.8855C54.0756 86.8041 54.3957 86.6889 54.6982 86.5613C55.0002 86.4331 55.2831 86.2905 55.5565 86.1397C56.1021 85.8375 56.5975 85.51 57.0682 85.1746C57.5382 84.8386 57.9816 84.4936 58.406 84.146C59.2541 83.4503 60.0274 82.7453 60.7428 82.0566C62.1711 80.6774 63.3674 79.3637 64.3311 78.2261C65.2935 77.0875 66.0197 76.1225 66.4774 75.4173C66.9347 74.7119 67.123 74.2658 67.0022 74.1592C66.8813 74.0524 66.4659 74.2914 65.8074 74.8027C65.1487 75.3137 64.2472 76.0977 63.1488 77.0729C62.0498 78.0466 60.7554 79.2158 59.296 80.4633C58.5659 81.0857 57.7942 81.7277 56.981 82.3556C56.5745 82.6692 56.1574 82.9788 55.7307 83.2745C55.3043 83.5695 54.8671 83.8516 54.4273 84.0949Z" fill="#234087"/>
</g>
<defs>
<clipPath id="clip0_145_156">
<rect width="101.403" height="102.735" fill="white"/>
</clipPath>
</defs>
</svg>
